<?xml version="1.0" encoding="UTF-8" standalone="no"?>
<!-- Created with Inkscape (http://www.inkscape.org/) -->
<svg xmlns:dc="http://purl.org/dc/elements/1.1/" xmlns:cc="http://creativecommons.org/ns#" xmlns:rdf="http://www.w3.org/1999/02/22-rdf-syntax-ns#" xmlns:svg="http://www.w3.org/2000/svg" xmlns="http://www.w3.org/2000/svg" xmlns:sodipodi="http://sodipodi.sourceforge.net/DTD/sodipodi-0.dtd" xmlns:inkscape="http://www.inkscape.org/namespaces/inkscape" id="svg2" sodipodi:version="0.32" inkscape:version="0.46" sodipodi:docname="marketplace icon.svg" inkscape:output_extension="org.inkscape.output.svg.inkscape">
  <g inkscape:groupmode="layer" id="layer2" sodipodi:insensitive="true">
    <path style="fill:#000000;fill-opacity:1;fill-rule:evenodd;stroke:#000000;stroke-width:1px;stroke-linecap:butt;stroke-linejoin:miter;stroke-opacity:1" d="M 580.26315,668.75209 C 584.21052,651.64683 598.70719,509.05606 598.70719,509.05606 C 598.70719,509.05606 600.71535,497.21395 588.87325,495.89816 C 577.03114,494.58237 308.30987,575.07679 289.88882,572.44521 C 271.46776,569.81363 204.50183,529.25542 197.92288,525.30805 C 191.34394,521.36068 179.50183,516.09752 182.13341,530.57121 C 184.76499,545.04489 202.21644,722.122 202.21644,722.122 C 205.06064,747.71983 261.40138,773.94729 276.91623,772.7914 C 294.02461,771.51679 566.78207,701.99301 566.78207,701.99301 C 566.78207,701.99301 578.94737,691.12051 580.26315,668.75209 z" id="path3168" sodipodi:nodetypes="ccsssscscc"/>
    <path style="fill:none;fill-rule:evenodd;stroke:#000000;stroke-width:10;stroke-linecap:round;stroke-linejoin:round;stroke-miterlimit:4;stroke-dasharray:none;stroke-opacity:1" d="M 590.81246,515.63501 C 590.81246,515.63501 598.70719,491.95079 593.44403,488.00343 C 588.18088,484.05606 503.85543,441.23543 503.85543,441.23543 C 503.85543,441.23543 497.27648,439.91964 482.8028,443.86701 C 468.32912,447.81438 193.30612,513.48893 193.30612,513.48893 C 193.30612,513.48893 185.41139,520.06788 186.72718,531.90999 C 188.04297,543.75209 207.89474,553.67797 207.89474,553.67797" id="path3170" sodipodi:nodetypes="cscscsc"/>
    <path style="fill:none;fill-rule:evenodd;stroke:#ffffff;stroke-width:10;stroke-linecap:round;stroke-linejoin:miter;stroke-miterlimit:4;stroke-dasharray:none;stroke-opacity:1" d="M 288.8432,590.80863 L 277.92472,762.5264" id="path3172" sodipodi:nodetypes="cc"/>
    <path style="fill:none;fill-rule:evenodd;stroke:#000000;stroke-width:10;stroke-linecap:round;stroke-linejoin:round;stroke-miterlimit:4;stroke-dasharray:none;stroke-opacity:1" d="M 417.87967,460.77956 C 420.85743,415.1205 412.91674,377.40214 398.02791,360.52814 C 383.13909,343.65414 326.56155,345.63932 307.70236,376.40955 C 294.31657,398.24953 288.84319,429.01674 293.80613,486.58686" id="path3174" sodipodi:nodetypes="csss"/>
    <path style="fill:none;fill-rule:evenodd;stroke:#000000;stroke-width:10;stroke-linecap:round;stroke-linejoin:round;stroke-miterlimit:4;stroke-dasharray:none;stroke-opacity:1" d="M 497.38344,523.1346 C 500.3612,477.47554 492.42051,439.75718 477.53168,422.88318 C 462.64286,406.00918 406.06532,407.99436 387.20613,438.76459 C 373.82034,460.60457 368.34696,491.37178 373.3099,548.9419" id="path3176" sodipodi:nodetypes="csss"/>
    <path style="fill:none;fill-rule:evenodd;stroke:#000000;stroke-width:10;stroke-linecap:round;stroke-linejoin:miter;stroke-miterlimit:4;stroke-dasharray:none;stroke-opacity:1" d="M 500.2645,453.83144 L 495.30156,649.37134 L 495.30156,649.37134" id="path3178"/>
  </g>
  <g inkscape:groupmode="layer" id="layer3"/>
</svg>