<svg xmlns="http://www.w3.org/2000/svg" viewBox="0 0 512 640" x="0px" y="0px"><title>Painting-Brush-paint-Art-Craft</title><g data-name="Icons copy"><path d="M473.954,429.437,111.361,397.913a41.983,41.983,0,0,0-64.738-6.527l-27.13,27.167a8,8,0,0,0-.693,10.513l23.325,30.5a41.541,41.541,0,0,0,33.307,16.479q.508,0,1.02-.012A41.49,41.49,0,0,0,107.157,461.6L470.75,477.994q.546.025,1.088.025a24.482,24.482,0,0,0,24.292-22.736h0A24.467,24.467,0,0,0,473.954,429.437ZM161.836,418.361l-1.953,29.6-15.988-.72,2-30.265ZM76.079,460.033a25.716,25.716,0,0,1-21.245-10.191L35.762,424.906l22.182-22.214a25.977,25.977,0,0,1,40.478,4.691l-2.847,43.128A25.68,25.68,0,0,1,76.079,460.033Zm37.927-45.83,15.943,1.386-2.041,30.93-15.987-.721Zm366.159,40.026h0a8.349,8.349,0,0,1-8.694,7.78l-295.6-13.329,1.909-28.934,294.789,25.629A8.381,8.381,0,0,1,480.165,454.229Z"/><path d="M461.574,158.057a63.727,63.727,0,0,1,14.217,6.5l8.418-13.606a79.744,79.744,0,0,0-17.783-8.14Z"/><path d="M357.823,154.178c3.638,3.636,9.691,4.941,17.981,4.941,7.134,0,15.927-.967,26.26-2.247,13.981-1.73,29.829-3.692,44.99-1.889l1.892-15.886c-17.091-2.037-33.963.052-48.866,1.9-7.029.871-25.018,3.1-30.722,1.647-1.453-5.7.777-23.7,1.648-30.74,3.417-27.594,8.1-65.387-17.981-94.894L341.037,27.6c21.3,24.1,17.471,55.039,14.09,82.336C352.361,132.268,351.056,147.409,357.823,154.178Z"/><path d="M59.779,364.132A224.038,224.038,0,0,1,256,32c31.1,0,51.07,5.494,61.059,16.8,11.75,13.3,9.108,34.628,6.31,57.212-3.194,25.8-6.5,52.472,11.826,70.8s45,15.019,70.8,11.826c22.586-2.8,43.918-5.439,57.212,6.31C474.506,204.93,480,224.9,480,256a223.882,223.882,0,0,1-54.767,146.756l12.084,10.488A239.889,239.889,0,0,0,496,256c0-35.951-7.262-59.846-22.2-73.048-18.7-16.526-44.665-13.309-69.775-10.2-23,2.848-44.716,5.538-57.516-7.262s-10.11-34.52-7.262-57.516c3.11-25.11,6.326-51.075-10.2-69.775C315.846,23.262,291.951,16,256,16A240.071,240.071,0,0,0,45.773,371.868Z"/><path d="M256,144a48,48,0,1,0-48-48A48.053,48.053,0,0,0,256,144Zm0-80a32,32,0,1,1-32,32A32.036,32.036,0,0,1,256,64Z"/><path d="M256,304a48,48,0,1,0-48-48A48.053,48.053,0,0,0,256,304Zm0-80a32,32,0,1,1-32,32A32.036,32.036,0,0,1,256,224Z"/><path d="M176.805,108.922a48,48,0,1,0,14.058,33.941A47.688,47.688,0,0,0,176.805,108.922ZM165.49,165.49a32,32,0,1,1,0-45.254h0a32,32,0,0,1,0,45.254Z"/><path d="M48,256a48,48,0,1,0,48-48A48.053,48.053,0,0,0,48,256Zm48-32a32,32,0,1,1-32,32A32.036,32.036,0,0,1,96,224Z"/><path d="M182.621,396.044a48,48,0,1,0-87.739-28.27l15.994.452a32,32,0,1,1,58.5,18.837Z"/><path d="M217.6,387.2l12.793,9.61a32.012,32.012,0,0,1,54.947,6.4L300,396.8a48.012,48.012,0,0,0-82.4-9.6Z"/><path d="M321.137,369.137A47.686,47.686,0,0,0,335.2,403.078a49.04,49.04,0,0,0,3.769,3.394l10.072-12.432a33,33,0,0,1-2.527-2.276,32,32,0,1,1,45.254,0,32.452,32.452,0,0,1-4.345,3.644l9.164,13.116a48.378,48.378,0,0,0,6.5-5.448,48,48,0,1,0-81.94-33.941Z"/><path d="M416,304a48,48,0,1,0-48-48A48.053,48.053,0,0,0,416,304Zm0-80a32,32,0,1,1-32,32A32.036,32.036,0,0,1,416,224Z"/></g><text x="0" y="527" fill="#000000" font-size="5px" font-weight="bold" font-family="'Helvetica Neue', Helvetica, Arial-Unicode, Arial, Sans-serif">Created by Nhor</text><text x="0" y="532" fill="#000000" font-size="5px" font-weight="bold" font-family="'Helvetica Neue', Helvetica, Arial-Unicode, Arial, Sans-serif">from the Noun Project</text></svg>