<svg xmlns="http://www.w3.org/2000/svg" xmlns:xlink="http://www.w3.org/1999/xlink" version="1.1" x="0px" y="0px" viewBox="0 0 168.292 351.41125" enable-background="new 0 0 168.292 281.129" xml:space="preserve"><path d="M155.206,101.267c1.331-0.838,2.569-1.778,3.669-2.851c2.59-2.524,3.45-6.341,1.793-9.607  c-1.774-3.498-5.362-5.039-9.035-5.812c2.048-4.223,3.17-9.29,4.495-13.302c0.949-2.875-1.554-5.705-4.388-5.759  c-5.631-0.107-11.051,1.406-16.523,2.404c0.867-1.341,1.706-2.69,2.522-4.026c2.213-3.62,4.598-8.299,1.852-12.273  c-2.247-3.251-5.695-3.757-9.35-3.263c-3.774,0.51-7.513,2.344-11.061,4.64c-0.52-6.775-1.713-13.476-2.472-20.239  c-0.384-3.422-3.567-5.675-6.846-3.929c-5.138,2.735-9.365,6.627-13.604,10.523c-1.504-4.62-4.472-8.604-10.012-11.433  c-2.825-1.442-5.565-0.092-6.684,2.719c-0.311,0.78-0.596,1.566-0.865,2.354c-3.599-3.7-8.376-6.757-12.647-8.262  c-2.414-0.851-4.876,0.948-5.596,3.178c-1.579,4.892-2.719,9.849-3.1,14.873c-2.468-1.615-5.192-2.926-8.137-3.946  c-2.389-0.829-4.912,0.925-5.596,3.177c-1.955,6.433-1.805,12.993-0.289,19.395c-7.752-2.459-15.82-3.439-23.987-4.537  c-3.484-0.468-5.59,4.187-3.928,6.846c2.587,4.14,6.023,7.633,9.368,11.157c3.136,3.305,6.76,6.827,8.036,11.3  c-5.947,1.331-11.736,3.354-17.136,5.895c-2.439,1.147-2.535,4.115-1.632,6.225c0.917,2.146,2.275,3.822,3.901,5.162  c-2.533,1.897-4.92,3.968-6.951,6.429c-2.281,2.764-5.669,6.519-4.571,10.385c1.003,3.534,5.357,6.526,8.569,7.765  c2.579,0.995,6.248,1.163,9.215,2.13c-1.129,1.512-2.241,3.014-3.338,4.483c-1.488,1.991-0.326,5.078,1.632,6.225  c1.643,0.963,3.465,1.334,5.365,1.304c-0.686,5.189-0.791,10.434-0.794,15.696c-0.001,2.684,2.086,4.281,4.55,4.55  c4.196,0.457,8.125-1.049,11.924-2.854c0.059,3.052,0.501,6.083,1.433,9.068c1.093,3.506,4.948,4.146,7.604,2.007  c3.815-3.071,7.085-6.778,9.999-10.768c2.451,6.788,5.679,14.874,12.905,15.13c3.57,0.126,6.678-1.62,9.279-4.259  c0.799,5.34,1.998,10.685,2.752,15.917c1.504,10.431,2.075,20.95,2.22,31.479c0.065,4.798-0.034,9.584-0.256,14.361  c-4.13-8.909-10.387-16.907-18.29-22.014c-7.567-4.89-26.827-15.822-32.579-3.049c-5.792,12.862,10.809,24.563,19.662,30.545  c4.58,3.094,9.393,5.847,14.273,8.438c3.266,1.733,6.588,3.583,9.638,5.678c3.333,2.288,3.77,5.732,3.578,9.502  c-0.042,0.813,0.104,1.511,0.374,2.098c-0.045,0.273-0.083,0.547-0.13,0.819c-0.031,0.137-0.061,0.275-0.081,0.423  c-0.031,0.213-0.062,0.426-0.091,0.639c-0.795,5.679,7.764,8.262,8.773,2.419c2.651-15.333,4.133-30.727,4.24-46.315  c0.071-10.42-0.479-20.875-1.727-31.22c-1.105-9.16-3.772-18.62-4.053-27.862c3.93,5.306,8.585,9.908,14.055,13.301  c2.003,1.242,5.139,0.547,6.225-1.632c1.074-2.154,1.795-4.396,2.257-6.685c0.477,0.308,0.919,0.591,1.303,0.846  c4.124,2.75,9.415,5.991,14.341,3.49c4.772-2.424,5.295-10.089,5.613-14.641c0.227-3.242,0.276-6.863-0.245-10.311  c2.933,0.606,5.855,0.714,8.615-0.034c3.635-0.985,5.903-4.15,6.457-7.741c0.846-5.494-2.369-10.274-5.886-14.206  c4.492,0.069,8.988-0.148,12.494-2.503C165.757,115.904,160.602,107.006,155.206,101.267z M151.873,92.511  c-0.062,0.05-0.123,0.102-0.173,0.137c-5.566,4.004-13.504,5.266-20.094,6.391c-3.61,0.616-7.268,0.951-10.927,1.042  c-1.402,0.036-2.805-0.012-4.202-0.118c-0.482-0.037-2.632-0.665-2.022-0.373c-0.527-0.247-1.048-0.387-1.553-0.443  c-0.383-2.178-1.058-4.294-1.988-6.311c9.684,0.326,19.371-1.469,29.058-1.655C143.719,91.109,148.362,90.903,151.873,92.511z   M145.628,73.473c-0.897,3.156-2.036,6.33-3.93,8.175c-0.146,0.143-0.277,0.289-0.398,0.438c-7.305-0.012-14.598,1.023-21.895,1.479  c2.791-2.326,5.54-4.699,8.096-7.292C133.665,76.223,139.579,74.349,145.628,73.473z M127.856,57.305  c1.02-0.542,2.044-0.984,3.138-1.345c-0.774,1.561-1.909,3.067-2.811,4.454c-6.304,9.699-15.014,16.041-23.435,23.682  c-1.813-1.812-3.846-3.414-6.024-4.755C108.569,72.191,116.949,63.103,127.856,57.305z M97.624,48.735  c3.732-3.181,7.167-6.72,10.998-9.745c0.815,5.866,1.637,11.727,1.717,17.667c0.007,0.44,0.068,0.843,0.168,1.217  c-0.945,0.755-1.864,1.489-2.743,2.17c-3.778,2.927-7.647,6.479-11.454,9.601C96.292,62.969,97.533,55.624,97.624,48.735z   M86.181,38.279c1.311,2.045,1.973,4.459,2.286,6.996c-0.332,0.945-0.211,1.926,0.219,2.804c0.075,2.085-0.01,4.191-0.107,6.192  c-0.336,6.925-1.608,13.972-0.978,20.907c-2.288-0.344-4.602-0.379-6.887-0.07C83.688,63.043,83.164,50.284,86.181,38.279z   M88.097,84.331c8.463,2.061,15.623,10.774,16.062,19.255c0.602,11.636-13.416,10.45-21.126,9.556  c-4.661-0.541-9.52-0.964-13.148-4.257c-3.33-3.023-3.436-7.677-2.437-11.738c0.275-1.117,0.613-2.137,1.005-3.074  c0.818-0.709,1.366-1.753,1.561-2.887C73.936,85.472,80.758,84.32,88.097,84.331z M67.687,34.023c3.037,2.02,5.956,4.92,7.332,7.642  c0.27,0.534,0.596,0.961,0.958,1.3c-1.17,7.532-1.515,15.238-2.675,22.786c-1.873-4.053-3.365-8.313-5.279-12.348  c-0.463-0.975-0.968-1.906-1.51-2.797c0.072-0.478,0.073-0.988-0.012-1.527C65.71,44.046,66.423,38.948,67.687,34.023z   M51.392,48.17c4.642,2.803,7.665,6.976,9.947,12.408c2.657,6.323,5.027,12.425,8.985,17.939c-1.946,0.997-3.664,2.369-5.161,3.984  C57.586,72.838,50.366,60.298,51.392,48.17z M30.345,65.961c5.443,0.929,10.8,2.238,15.823,4.633  c0.391,0.187,0.776,0.311,1.155,0.392c2,4.244,4.446,8.331,7.099,12.161c-3.854-0.397-7.752-0.401-11.637-0.082  c-0.305-0.604-0.749-1.132-1.319-1.533C39.721,75.326,34.934,70.667,30.345,65.961z M59.158,93.174  c-0.408,1.277-0.738,2.56-0.98,3.818c-0.318,1.652-0.446,3.3-0.392,4.919c-6.923-0.884-13.722-2.8-20.698-3.542  c-3.567-0.38-8.094-0.519-11.419-2.284C36.288,92.14,48.125,90.701,59.158,93.174z M29.847,121.323  c-3.917-1.65-8.335-1.735-12.341-3.663c-0.538-0.263-1.013-0.606-1.427-1.029c0.442-0.582,0.904-1.152,1.281-1.718  c2.359-3.541,6.217-6.012,9.685-8.338c0.357-0.07,0.71-0.17,1.045-0.323c1.282,0.265,2.571,0.47,3.836,0.635  c3.813,0.495,7.643,0.833,11.45,1.379C38.295,111.756,33.887,116.389,29.847,121.323z M44.755,147.335  c-2.75,1.284-5.583,3.028-8.538,3.91c0.084-4.472,0.382-8.913,1.323-13.308c2.695-1.241,5.21-2.686,7.252-3.797  c1.941-1.056,3.892-2.165,5.827-3.321C48.185,136.18,46.029,141.739,44.755,147.335z M42.921,124.74  c-2.484,1.462-5.031,2.88-7.658,4.1c6.445-8.397,14.247-16.696,24.574-17.586c0.184-0.016,0.345-0.06,0.517-0.09  c0.246,0.437,0.508,0.866,0.788,1.287c-0.611,0.202-1.218,0.53-1.792,1.045C54.443,117.892,48.576,121.412,42.921,124.74z   M52.83,156.013c0.315-4.896,1.833-9.786,3.433-14.376c2.729-7.827,6.629-15.185,10.233-22.628c0.159-0.328,0.271-0.654,0.356-0.978  c1.725,1.057,3.595,1.815,5.542,2.377c-2.756,6.932-5.925,13.687-9.495,20.243C60,145.978,56.769,151.32,52.83,156.013z   M84.568,150.08c-0.766,3.316-2.282,6.341-3.997,9.261c-0.932,1.585-2.023,2.981-3.333,4.268c-0.259,0.24-0.548,0.435-0.867,0.583  c-0.186,0.067-0.327,0.121-0.44,0.167c0.042-0.046,0.048-0.094-0.025-0.135c-2.08-1.176-3.317-5.364-4.142-7.421  c-1.054-2.626-1.993-5.29-3.101-7.893c0.48-0.818,0.954-1.637,1.417-2.453c3.181-5.594,6.006-11.412,8.544-17.347  c1.644,6.352,3.897,12.894,6.845,19.093C85.064,148.69,84.748,149.309,84.568,150.08z M73.925,235.246  c-9.299-5.121-20.638-11.334-26.188-20.745c-1.828-3.101-1.726-5.915,2.382-5.232c5.453,0.907,10.602,3.901,15.26,6.73  c8.48,5.151,15.05,14.672,18.302,24.605C80.509,238.671,77.129,237.011,73.925,235.246z M107.072,163.023  c-11.277-9.76-17.534-26.346-20.649-40.421c3.866,0.341,7.85,0.391,11.631-0.394c0.049,0.147,0.104,0.294,0.168,0.439  c3.125,7.128,5.469,14.629,7.211,22.208C106.677,150.273,108.045,157.071,107.072,163.023z M126.673,161.923  c-1.243-0.468-2.423-1.237-3.541-1.899c-1.611-0.955-3.148-2.037-4.655-3.15c-0.5-0.37-0.963-0.797-1.429-1.209  c-0.009-0.008-0.013-0.014-0.022-0.021c-0.203-0.562-0.537-1.048-0.956-1.454c-0.236-2.68-0.636-5.349-1.092-7.956  c-0.748-4.281-1.814-8.515-3.097-12.688c2.693,1.657,5.429,3.199,8.065,4.665c1.955,1.087,4.133,2.293,6.434,3.425  c0.022,0.625,0.18,1.277,0.503,1.941C128.878,147.664,128.306,156.802,126.673,161.923z M142.524,136.683  c-0.345,0.093-0.815,0.083-1.721,0.046c-6.733-0.271-13.98-4.988-19.595-8.276c-4.972-2.913-10.342-6.087-14.602-10.11  c2.979-2.416,4.946-5.697,5.924-9.4c4.095,2.595,7.523,6.196,11.644,8.792c3.547,2.235,6.953,4.592,10.18,7.289  c3.223,2.694,7.113,6.026,8.355,10.192C142.905,135.873,142.559,136.496,142.524,136.683z M151.558,113.736  c-5.018,1.008-10.244,0.044-15.286,0.702c-0.195,0.025-0.383,0.062-0.563,0.106c-1.325-0.967-2.664-1.907-3.997-2.827  c-1.443-0.996-2.901-1.914-4.334-2.877c2.315-0.308,4.566-0.691,6.646-1.027c3.817-0.616,8.109-1.39,12.235-2.64  c2.098,1.565,3.914,3.701,5.313,5.893c0.42,0.657,0.984,1.579,1.062,2.442C152.275,113.592,151.914,113.665,151.558,113.736z"/><text x="0" y="296.129" fill="#000000" font-size="5px" font-weight="bold" font-family="'Helvetica Neue', Helvetica, Arial-Unicode, Arial, Sans-serif">Created by corpus delicti</text><text x="0" y="301.129" fill="#000000" font-size="5px" font-weight="bold" font-family="'Helvetica Neue', Helvetica, Arial-Unicode, Arial, Sans-serif">from the Noun Project</text></svg>