<svg xmlns="http://www.w3.org/2000/svg" xmlns:xlink="http://www.w3.org/1999/xlink" version="1.1" x="0px" y="0px" viewBox="0 0 50 62.5" enable-background="new 0 0 50 50" xml:space="preserve"><g><polygon points="17.596,4.677 13.342,4.677 8.102,11.256 14.276,11.256  "/><polygon points="42.533,11.256 37.293,4.677 33.044,4.677 36.363,11.256  "/><path d="M42.533,11.81h-5.996c0.145,1.159,0.947,2.108,2.021,2.478v18.086h-26.48V14.289c1.075-0.368,1.878-1.318,2.021-2.479   H8.102c0.176,1.41,1.323,2.508,2.751,2.626v17.938H8.736v1.861h0.747V44.68h31.672V34.235h0.743v-1.861h-2.116V14.437   C41.212,14.32,42.36,13.221,42.533,11.81z"/><path d="M18.222,14.459c1.651,0,3.013-1.158,3.212-2.649h-6.419C15.21,13.302,16.57,14.459,18.222,14.459z"/><path d="M32.413,14.459c1.651,0,3.012-1.158,3.211-2.649h-6.423C29.4,13.302,30.762,14.459,32.413,14.459z"/><polygon points="21.554,11.256 22.679,4.677 18.139,4.677 15.031,11.256  "/><polygon points="35.604,11.256 32.5,4.677 27.956,4.677 29.085,11.256  "/><polygon points="28.695,11.256 27.607,4.677 23.027,4.677 21.939,11.256  "/><path d="M24.939,14.459c0.129,0,0.254-0.013,0.378-0.027c0.124,0.014,0.253,0.027,0.382,0.027c1.544,0,2.813-1.158,2.996-2.649   h-3.378h-3.378C22.127,13.302,23.396,14.459,24.939,14.459z"/></g><text x="0" y="65" fill="#000000" font-size="5px" font-weight="bold" font-family="'Helvetica Neue', Helvetica, Arial-Unicode, Arial, Sans-serif">Created by Kick</text><text x="0" y="70" fill="#000000" font-size="5px" font-weight="bold" font-family="'Helvetica Neue', Helvetica, Arial-Unicode, Arial, Sans-serif">from the Noun Project</text></svg>