<?xml version='1.0' encoding='UTF-8'?>
<svg viewBox="-4 0 32 32" xmlns="http://www.w3.org/2000/svg" xmlns:xlink="http://www.w3.org/1999/xlink">
  <g id="Layer_1" transform="translate(-2, -6)" style="enable-background:new 0 0 32 32">
    <g id="PartlyСloudyDay">
      <rect x="23.4" y="9.6" width="4" height="2" rx="0" ry="0" fill="#FFB115" class="Yellow" transform="matrix(0.7071, -0.7071, 0.7071, 0.7071, -0.0916, 21.0508)" />
    </g>
  </g>
  <g id="Layer_1" transform="translate(-2, -6)" style="enable-background:new 0 0 32 32">
    <g id="PartlyСloudyDay">
      <rect x="11.6" y="8.6" width="2" height="4" rx="0" ry="0" fill="#FFB115" class="Yellow" transform="matrix(0.7071, -0.7071, 0.7071, 0.7071, -3.8198, 12.0499)" />
    </g>
  </g>
  <g id="Layer_1" transform="translate(-2, -6)" style="enable-background:new 0 0 32 32">
    <g id="PartlyСloudyDay">
      <rect x="18" y="6" width="2" height="4" rx="0" ry="0" fill="#FFB115" class="Yellow" />
    </g>
  </g>
  <g id="Layer_1" transform="translate(-2, -6)" style="enable-background:new 0 0 32 32">
    <g id="PartlyСloudyDay">
      <rect x="26" y="16" width="4" height="2" rx="0" ry="0" fill="#FFB115" class="Yellow" />
    </g>
  </g>
  <g id="Layer_1" transform="translate(-2, -6)" style="enable-background:new 0 0 32 32">
    <g id="PartlyСloudyDay">
      <rect x="24.4" y="21.4" width="2" height="4" rx="0" ry="0" fill="#FFB115" class="Yellow" transform="matrix(0.7071, -0.7071, 0.7071, 0.7071, -9.0919, 24.7782)" />
    </g>
  </g>
  <g id="Layer_1" transform="translate(-2, -6)" style="enable-background:new 0 0 32 32">
    <g id="PartlyСloudyDay">
      <path d="M19, 12C17.6, 12 16.3, 12.6 15.4, 13.6C16.2, 14.3 16.9, 15.1 17.3, 16.1C19.9, 16.3 22, 18.4 22, 21C23.2, 20.1 24, 18.7 24, 17C24, 14.2 21.8, 12 19, 12z" fill="#FFB115" class="Yellow" />
    </g>
  </g>
  <g id="Layer_1" transform="translate(-2, -6)" style="enable-background:new 0 0 32 32">
    <g id="PartlyСloudyDay">
      <path d="M20, 22L19.8, 22C19.9, 21.7 20, 21.4 20, 21C20, 19.3 18.7, 18 17, 18C16.6, 18 16.3, 18.1 15.9, 18.2C15.5, 15.8 13.5, 14 11, 14C8.6, 14 6.6, 15.7 6.1, 18C6.1, 18 6, 18 6, 18C3.8, 18 2, 19.8 2, 22C2, 24.2 3.8, 26 6, 26L10, 26L17, 26L20, 26C21.1, 26 22, 25.1 22, 24C22, 22.9 21.1, 22 20, 22z" fill="#1177D7" class="Blue" />
    </g>
  </g>
</svg>
