<?xml version='1.0' encoding='UTF-8'?>
<svg viewBox="-2 0 32 32" xmlns="http://www.w3.org/2000/svg" xmlns:xlink="http://www.w3.org/1999/xlink">
  <g id="Layer_1" transform="translate(-2, -8)" style="enable-background:new 0 0 32 32">
    <g id="Cloudy_1_">
      <path d="M27, 18C26.6, 18 26.2, 18.1 25.8, 18.2C25.9, 17.8 26, 17.4 26, 17C26, 14.2 23.8, 12 21, 12C20.5, 12 19.9, 12.1 19.4, 12.3C18.4, 9.8 15.9, 8 13, 8C9.1, 8 6, 11.1 6, 15C6, 15.3 6, 15.7 6.1, 16C6.1, 16 6, 16 6, 16C3.8, 16 2, 17.8 2, 20C2, 22.2 3.8, 24 6, 24L27, 24C28.7, 24 30, 22.7 30, 21C30, 19.3 28.7, 18 27, 18z" fill="#1177D7" class="Blue" />
    </g>
  </g>
</svg>