<?xml version='1.0' encoding='UTF-8'?>
<svg viewBox="-2.0025 -4.8425 32 32" xmlns="http://www.w3.org/2000/svg" xmlns:xlink="http://www.w3.org/1999/xlink">
  <defs id="defs4" tag="staticElement_id12837735">
    <linearGradient x1="91.6231px" y1="-877.4493px" x2="53.4468px" y2="-121.5587px" gradientunits="userspaceonuse" spreadmethod="pad" id="linearGradient11509" />
    <linearGradient x1="0%" y1="0%" x2="100%" y2="0%" gradientunits="objectboundingbox" spreadmethod="pad" id="linearGradient11503">
      <stop offset="0%" id="stop11505" style="stop-color:#abc837;stop-opacity:1" />
      <stop offset="100%" id="stop11507" style="stop-color:#112b00;stop-opacity:1" />
    </linearGradient>
    <linearGradient x1="292.0486px" y1="-801.0967px" x2="57.2644px" y2="-150.1909px" gradientunits="userspaceonuse" spreadmethod="pad" id="linearGradient11501" />
    <linearGradient x1="0%" y1="0%" x2="100%" y2="0%" gradientunits="objectboundingbox" spreadmethod="pad" id="linearGradient11495">
      <stop offset="0%" id="stop11497" style="stop-color:#aad400;stop-opacity:1" />
      <stop offset="100%" id="stop11499" style="stop-color:#225500;stop-opacity:1" />
    </linearGradient>
    <linearGradient x1="-288.231px" y1="-846.9082px" x2="36.2675px" y2="-155.9174px" gradientunits="userspaceonuse" spreadmethod="pad" id="linearGradient11493" />
    <linearGradient x1="0%" y1="0%" x2="100%" y2="0%" gradientunits="objectboundingbox" spreadmethod="pad" id="linearGradient11487">
      <stop offset="0%" id="stop11489" style="stop-color:#88aa00;stop-opacity:1" />
      <stop offset="100%" id="stop11491" style="stop-color:#225500;stop-opacity:1" />
    </linearGradient>
    <linearGradient x1="494.383px" y1="-610.2152px" x2="41.9939px" y2="-155.9174px" gradientunits="userspaceonuse" spreadmethod="pad" id="linearGradient11517" />
    <linearGradient x1="296.1818px" y1="856.1055px" x2="294.5957px" y2="702.2526px" gradientunits="userspaceonuse" spreadmethod="pad" gradientTransform="matrix(1.1431, 0, 0, 1.1431, -356.6888, -1232.3661)" id="linearGradient11529" />
    <linearGradient x1="0%" y1="0%" x2="100%" y2="0%" gradientunits="objectboundingbox" spreadmethod="pad" id="linearGradient10951">
      <stop offset="0%" id="stop10953" style="stop-color:#225500;stop-opacity:1" />
      <stop offset="100%" id="stop10955" style="stop-color:#aad400;stop-opacity:1" />
    </linearGradient>
  </defs>
  <g id="svg2" transform="translate(-0.8133, -3.653)">
    <g transform="matrix(0.0157, 0, 0, 0.0157, 0, 0)">
      <g transform="matrix(1.0667, 0, 0, 1.0667, 0, 0)">
        <g id="layer1" transform="translate(0, 719.2913)">
          <g id="g11544" transform="matrix(1.9068, 0, 0, 1.9068, 692.4246, 1397.509)">
            <path d="M0.4722, -435.2355C-5.1484, -434.8358 -13.225, -422.6127 -14.4419, -421.2944C-17.0066, -418.5159 -20.4871, -425.4095 -22.3169, -423.4272C-23.528, -422.1151 -23.6688, -401.4242 -28.2251, -406.3605C-29.8602, -408.132 -41.9366, -421.3355 -45.9497, -419.1617C-46.4378, -418.8973 -50.745, -410.6283 -51.8559, -410.6283C-54.4603, -410.6283 -56.7079, -424.4157 -57.7641, -425.5599C-60.1991, -428.1979 -58.6068, -408.4955 -61.7055, -408.4955C-63.1733, -408.4955 -62.3614, -412.0498 -63.6743, -412.761C-65.4937, -413.7465 -67.57, -413.8047 -69.5805, -414.8938C-78.4525, -419.6997 -74.0102, -396.7628 -75.4887, -393.5593C-76.9326, -390.4308 -82.1234, -392.2321 -85.4457, -394.3729C-85.4537, -394.0688 -85.4398, -393.7831 -85.3363, -393.5593C-84.0221, -390.7117 -71.5623, -382.877 -77.4574, -376.4903C-82.1628, -371.3925 -100.8373, -382.8932 -101.0883, -382.8932C-102.0388, -382.8932 -100.046, -371.2189 -101.0883, -370.0897C-101.6102, -369.5243 -107.8165, -365.2009 -108.9672, -365.8242C-113.085, -368.0548 -118.7922, -387.1836 -122.7524, -382.8932C-124.3935, -381.1153 -121.1113, -374.0004 -122.7524, -372.2225C-123.737, -371.1557 -127.676, -373.2893 -128.6606, -372.2225C-133.6362, -366.832 -122.3877, -355.1535 -134.5688, -355.1535C-135.4448, -355.1535 -141.2236, -354.4915 -142.4458, -355.1535C-164.1864, -366.9303 -144.1322, -373.1357 -154.2622, -378.6231C-155.6172, -379.3571 -164.282, -386.7818 -166.0767, -382.8932C-169.4049, -375.6818 -158.8606, -367.2415 -168.0474, -357.2886C-169.6885, -355.5107 -176.252, -359.0665 -177.8931, -357.2886C-180.7631, -354.1792 -169.2719, -342.3547 -179.8619, -342.3547C-186.733, -342.3547 -192.647, -352.4974 -199.5553, -348.7553C-201.3061, -347.8069 -207.1586, -339.9253 -209.401, -342.3547C-211.594, -344.7306 -205.5815, -361.4927 -213.3424, -357.2886C-218.5432, -354.4713 -215.0952, -346.7373 -219.2486, -344.4874C-222.6901, -342.6232 -219.9855, -346.6202 -223.188, -346.6202C-223.7753, -346.6202 -222.3707, -330.4366 -223.188, -329.5512C-227.6301, -324.7387 -231.1156, -328.5122 -233.0337, -329.5512C-241.4212, -334.0947 -240.5478, -323.1529 -240.9126, -323.1529C-244.1642, -323.1529 -249.6982, -330.0455 -252.7271, -331.6862C-260.349, -335.815 -264.2833, -308.3042 -266.5123, -303.9488C-266.5123, -302.6719 -265.6076, -299.1532 -264.6568, -295.4178L18.1284, -295.4178L40.2807, -295.4178L43.2006, -295.4178L44.1576, -295.4178L46.1146, -295.4178L57.4544, -295.4178L57.556, -295.4178L151.3587, -295.4178L151.4603, -295.4178L162.7982, -295.4178L164.7552, -295.4178L165.7142, -295.4178L168.6341, -295.4178L190.7864, -295.4178L473.5716, -295.4178C474.5224, -299.1532 475.4271, -302.672 475.4271, -303.9488C473.1982, -308.3042 469.2619, -335.8149 461.64, -331.6862C458.6111, -330.0455 453.0772, -323.1529 449.8255, -323.1529C449.4607, -323.1529 450.3341, -334.0946 441.9466, -329.5512C440.0285, -328.5122 436.543, -324.7387 432.1009, -329.5512C431.2836, -330.4366 432.6882, -346.6202 432.1009, -346.6202C428.8983, -346.6202 431.6049, -342.6232 428.1634, -344.4874C424.01, -346.7373 427.456, -354.4713 422.2552, -357.2886C414.4943, -361.4926 420.5087, -344.7305 418.3158, -342.3547C416.0734, -339.9253 410.2209, -347.8069 408.4701, -348.7553C401.5619, -352.4975 395.6479, -342.3547 388.7767, -342.3547C378.1867, -342.3547 389.678, -354.1793 386.8079, -357.2886C385.1668, -359.0665 378.6033, -355.5107 376.9622, -357.2886C367.7754, -367.2415 378.3177, -375.6818 374.9895, -382.8932C373.1949, -386.7817 364.5301, -379.3571 363.175, -378.6231C353.045, -373.1357 373.0992, -366.9303 351.3586, -355.1535C350.1365, -354.4915 344.3577, -355.1535 343.4816, -355.1535C331.3005, -355.1535 342.551, -366.8319 337.5754, -372.2225C336.5908, -373.2893 332.6499, -371.1557 331.6652, -372.2225C330.0241, -374.0005 333.3063, -381.1153 331.6652, -382.8932C327.7051, -387.1836 321.9998, -368.0548 317.882, -365.8242C316.7313, -365.2009 310.525, -369.5244 310.0031, -370.0897C308.9608, -371.2189 310.9536, -382.8932 310.0031, -382.8932C309.7522, -382.8932 291.0757, -371.3926 286.3703, -376.4903C280.4752, -382.877 292.935, -390.7117 294.2492, -393.5593C294.3524, -393.7831 294.3666, -394.0688 294.3586, -394.3729C291.0362, -392.2321 285.8454, -390.4308 284.4016, -393.5593C282.9231, -396.7628 287.3673, -419.6997 278.4954, -414.8938C276.4849, -413.8047 274.4066, -413.7466 272.5872, -412.761C271.2743, -412.0498 272.0863, -408.4955 270.6184, -408.4955C267.5197, -408.4955 269.112, -428.1979 266.677, -425.5599C265.6208, -424.4156 263.3751, -410.6283 260.7708, -410.6283C259.6599, -410.6283 255.3507, -418.8973 254.8626, -419.1617C250.8495, -421.3356 238.7731, -408.132 237.138, -406.3605C232.5817, -401.4242 232.4429, -422.1151 231.2318, -423.4272C229.402, -425.4095 225.9195, -418.5159 223.3548, -421.2944C222.1381, -422.6125 214.0632, -434.8332 208.4427, -435.2355L208.4407, -435.2355C207.4006, -435.3089 206.4449, -434.9785 205.6321, -434.0979C205.0156, -433.43 200.4209, -427.834 199.7219, -425.5623C199.0992, -423.5383 201.1144, -420.6704 199.7219, -419.1617C196.9654, -416.1753 189.9236, -432.0123 185.9387, -427.695C184.0244, -425.6211 185.316, -416.3976 185.7531, -413.8366C184.5191, -418.4132 176.7237, -428.7245 172.1515, -421.2944C171.4232, -420.1109 172.7386, -418.3011 172.1515, -417.0289C171.5852, -415.8019 165.5691, -411.3004 164.2745, -408.4955C162.4059, -404.4466 167.1151, -392.3689 164.2745, -389.2915C156.4038, -380.7645 146.8123, -399.9599 146.5518, -399.9599C145.9397, -399.9599 148.2568, -385.3093 144.5811, -389.2915C143.5207, -390.4404 141.9803, -405.6737 138.6749, -402.0927C136.3081, -399.5285 140.0533, -391.4266 136.7061, -391.4266C135.1027, -391.4266 127.5, -396.3895 124.8877, -393.5594C122.0725, -390.5094 128.3147, -382.1 130.7959, -380.756C127.9269, -380.756 110.5673, -371.4487 120.9502, -365.8244C122.7926, -364.8264 120.3347, -365.0978 117.54, -365.4268C117.5277, -365.5713 117.5196, -365.8042 117.5009, -365.8244C115.9387, -367.5169 113.9735, -367.0597 112.0693, -365.9577C111.004, -366.1863 109.8812, -366.563 109.1748, -365.8543C109.2457, -369.954 109.2273, -378.7248 107.165, -376.4905C105.9562, -375.1809 105.0811, -371.9558 104.456, -368.8351C103.8309, -371.9558 102.9577, -375.181 101.749, -376.4905C99.6867, -378.7248 99.6683, -369.9539 99.7392, -365.8543C99.0327, -366.5631 97.9081, -366.184 96.8427, -365.9554C94.9382, -367.0578 92.9735, -367.5171 91.4111, -365.8244C91.3924, -365.8042 91.3844, -365.5714 91.372, -365.4268C88.5773, -365.0978 86.1194, -364.8264 87.9618, -365.8244C98.3447, -371.4488 80.9851, -380.756 78.1161, -380.756C80.5973, -382.1 86.8395, -390.5095 84.0243, -393.5594C81.412, -396.3895 73.8113, -391.4266 72.2079, -391.4266C68.8607, -391.4266 72.606, -399.5285 70.2391, -402.0927C66.9337, -405.6737 65.3913, -390.4404 64.3309, -389.2915C60.6552, -385.3093 62.9743, -399.9599 62.3621, -399.9599C62.1017, -399.9599 52.5082, -380.7645 44.6375, -389.2915C41.7969, -392.369 46.5061, -404.4466 44.6375, -408.4955C43.343, -411.3004 37.3268, -415.8019 36.7605, -417.0289C36.1734, -418.3011 37.4888, -420.1109 36.7605, -421.2944C32.1883, -428.7246 24.393, -418.4132 23.1589, -413.8366C23.5961, -416.3976 24.8896, -425.621 22.9753, -427.695C18.9904, -432.0122 11.9486, -416.1753 9.1921, -419.1616C7.7996, -420.6702 9.8148, -423.5381 9.1921, -425.5622C8.4931, -427.8339 3.8985, -433.4299 3.2819, -434.0978C2.4686, -434.979 1.5122, -435.3094 0.4714, -435.2354zM294.359, -394.3729C296.8863, -396.0013 298.335, -397.8249 296.2184, -397.8249C293.5259, -397.8249 294.322, -395.8015 294.359, -394.3729zM-85.4457, -394.3729C-85.4087, -395.8015 -84.6125, -397.8249 -87.3051, -397.8249C-89.4217, -397.8249 -87.973, -396.0014 -85.4457, -394.3729z" fill="#039C23" opacity="1" fill-opacity="1" id="path11540" class="Green" stroke="none" stroke-width="3px" stroke-linecap="round" stroke-miterlimit="4" stroke-dashoffset="0px" stroke-opacity="1" />
          </g>
        </g>
      </g>
    </g>
  </g>
  <g id="svg2" transform="translate(-0.8133, -3.653)">
    <g transform="matrix(0.0157, 0, 0, 0.0157, 0, 0)">
      <g transform="matrix(1.0667, 0, 0, 1.0667, 0, 0)">
        <g id="layer1" transform="translate(0, 719.2913)">
          <g id="g11544" transform="matrix(1.9068, 0, 0, 1.9068, 692.4246, 1397.509)">
            <g id="g11519" transform="translate(55.3556, -167.9757)">
              <path d="M142.2051, -827.7676C142.2051, -827.7676 126.2973, -819.5403 104.6739, -804.0899C82.6162, -788.3292 56.1639, -765.7427 34.9962, -735.4278C24.4772, -720.2781 16.1102, -703.8021 11.0021, -686.6485C10.9175, -686.3643 10.8332, -686.0806 10.7501, -685.7969C5.5828, -668.1344 3.8069, -651.7377 4.2189, -637.5195C4.7867, -619.2036 9.1257, -604.8257 14.2853, -594.9257C22.1483, -579.9086 32.1053, -574.1497 40.5216, -573.8183C38.491, -581.8395 36.9592, -589.9908 36.0196, -598.2187C34.6113, -610.5996 34.5774, -623.0752 35.879, -635.3593C37.3542, -649.2328 40.4906, -662.7975 44.8458, -675.8554C50.0301, -691.3972 56.8839, -706.2331 64.7403, -720.4101C70.8346, -731.4049 77.4815, -742.0232 84.5665, -752.3261C77.8897, -741.7651 71.6728, -730.9237 66.0353, -719.7558C58.7687, -705.3606 52.5468, -690.4076 48.0333, -674.9257C44.2424, -661.9222 41.6809, -648.5394 40.7599, -635.0253C39.9448, -623.0637 40.4309, -611.0137 42.2287, -599.1601C43.9181, -588.0216 46.7545, -577.0695 50.4553, -566.4296C57.7199, -545.544 68.2364, -525.954 79.2365, -506.7753C90.2124, -487.6385 101.7386, -468.7775 111.217, -448.8593C115.9351, -438.9445 120.1341, -428.7705 123.4475, -418.3027C126.8306, -407.6146 129.2754, -396.6194 130.5237, -385.4785C131.8624, -373.5306 131.8168, -361.4329 130.4631, -349.4863C128.9178, -335.8473 125.6961, -322.4227 121.2795, -309.4257C115.9754, -293.8168 108.9798, -278.8131 100.9865, -264.3945C91.1409, -246.6346 79.7843, -229.7407 67.6017, -213.4941C62.1478, -206.2209 57.1254, -198.5761 53.3068, -190.3261C49.5524, -182.215 47.0319, -173.4634 46.6252, -164.5351C50.5719, -164.6396 54.5148, -164.685 58.4553, -164.6718C58.7342, -171.5304 60.7794, -178.6087 63.8049, -185.4648C67.0316, -192.7287 71.5743, -199.738 76.6526, -206.705C88.9234, -223.3724 100.3967, -240.8002 110.3811, -259.1855C118.4933, -274.113 125.6005, -289.756 131.01, -306.1171C135.5186, -319.7519 138.771, -333.9121 140.2912, -348.371C141.6157, -361.0473 141.5478, -373.8719 140.0178, -386.5409C138.5823, -398.35 135.9062, -409.918 132.2541, -421.0897C128.678, -432.0226 124.2335, -442.5427 119.2814, -452.6952C115.2664, -460.9191 110.9431, -468.9007 106.4943, -476.746C104.4491, -485.9717 101.9019, -501.593 101.6427, -507.2636C101.3428, -513.4162 101.8428, -519.6463 103.1251, -525.7226C105.4883, -537.4388 111.1845, -548.9164 117.9337, -560.1679C125.0984, -571.9812 133.5987, -583.5357 141.629, -595.8827C150.0697, -608.7936 157.8485, -622.6211 163.1778, -637.6952C164.5433, -641.6368 165.7276, -645.6073 166.7579, -649.5956C166.9125, -649.5766 167.0681, -649.5578 167.2227, -649.539L167.2227, -649.545C176.073, -648.5076 184.6031, -650.4298 191.6895, -657.0528C198.7093, -663.6136 204.0357, -674.7024 205.2188, -689.7696C205.5084, -693.4585 205.2896, -697.2715 204.6602, -701.1134C202.2734, -717.1758 193.1899, -733.0632 185.3965, -745.506C177.6243, -757.915 171.0078, -767.4943 171.0078, -767.4943C171.0078, -767.4943 162.2524, -759.8416 152.8281, -747.5431C143.4236, -735.2705 133.6023, -718.9952 129.5195, -705.5314C128.4732, -702.265 127.7747, -699.1201 127.5175, -696.1349C126.4695, -683.9674 128.7023, -675.5283 133.0898, -668.8927C137.4346, -662.3215 144.2848, -657.0752 152.5468, -653.5587C158.609, -669.0695 162.0601, -686.2066 164.7167, -703.4611C165.9728, -711.6737 167.0458, -719.9584 168.1561, -728.2326C167.82, -719.9269 167.5227, -711.6177 167.037, -703.3244C165.7868, -681.9888 163.3171, -660.4642 155.8182, -640.4553C150.5374, -626.3631 142.7784, -613.323 134.2948, -600.8889C126.1893, -589.0092 117.3934, -577.6001 109.6346, -565.4885C102.2346, -553.9372 95.8103, -541.572 92.6307, -528.2268C90.9783, -521.2912 90.2147, -514.1434 90.3729, -507.0159C90.3947, -506.0337 90.4345, -505.053 90.4901, -504.0725C89.1398, -506.3499 87.7774, -508.6346 86.4432, -510.9084C75.3658, -529.8625 64.8755, -548.8915 57.7147, -568.9553C56.6332, -571.9738 55.6243, -575.0148 54.6952, -578.0764C54.8286, -578.1701 54.962, -578.2642 55.0956, -578.3576L55.0897, -578.3713C62.0782, -583.3543 66.5515, -591.6329 70.2518, -603.4084C72.8804, -611.8158 74.6876, -620.6084 77.3924, -632.5275C79.3928, -641.5063 81.8544, -651.7701 85.4119, -664.0255C85.4693, -664.2234 85.5257, -664.4204 85.5838, -664.6193C89.8231, -679.1411 92.0175, -687.1293 97.1697, -704.0353C106.5872, -735.017 115.9622, -760.7661 126.2068, -787.1681C135.4882, -811.0879 142.2048, -827.7677 142.2048, -827.7677z" fill="#039C23" opacity="1" fill-opacity="1" id="path11404" class="Green" stroke="none" stroke-width="3px" stroke-linecap="round" stroke-miterlimit="4" stroke-dashoffset="0px" stroke-opacity="1" />
            </g>
          </g>
        </g>
      </g>
    </g>
  </g>
  <g id="svg2" transform="translate(-0.8133, -3.653)">
    <g transform="matrix(0.0157, 0, 0, 0.0157, 0, 0)">
      <g transform="matrix(1.0667, 0, 0, 1.0667, 0, 0)">
        <g id="layer1" transform="translate(0, 719.2913)">
          <g id="g11544" transform="matrix(1.9068, 0, 0, 1.9068, 692.4246, 1397.509)">
            <g id="g11519" transform="translate(55.3556, -167.9757)">
              <path d="M204.154, -619.7857C198.524, -601.2467 194.7347, -590.5386 191.1652, -577.725C188.1246, -566.4339 186.2272, -557.4902 186.1973, -549.1928C186.1683, -541.1352 187.9842, -534.6483 191.6369, -529.5749C200.7396, -540.4165 209.2599, -551.6391 216.5751, -563.6084C226.4824, -579.7858 234.3612, -597.3396 240.238, -615.6281C240.238, -615.6281 240.238, -615.6281 240.238, -615.6281C245.6848, -632.5682 249.4513, -650.1487 252.5934, -667.8498C253.7129, -674.1589 254.7592, -680.4867 255.7923, -686.8174C255.0218, -680.4548 254.238, -674.0942 253.3798, -667.7434C250.9717, -649.9242 247.9293, -632.157 243.1494, -614.8249C243.1494, -614.8249 243.1494, -614.8249 243.1494, -614.8249C237.9875, -596.1075 230.7449, -577.9475 221.3172, -560.9739C221.3172, -560.9739 221.3172, -560.9739 221.3172, -560.9739C212.5833, -545.249 201.9243, -530.664 190.629, -516.6619C190.629, -516.6619 190.629, -516.6619 190.629, -516.6619C178.1574, -501.2017 164.841, -486.4429 151.3802, -471.8342C123.444, -441.5157 94.5886, -411.904 69.622, -379.0937C57.9239, -363.7205 47.095, -347.6213 38.3231, -330.4093C38.3231, -330.4093 38.3231, -330.4093 38.3231, -330.4093C30.1702, -314.4118 23.8334, -297.3791 20.8851, -279.6674C17.9511, -262.0414 18.581, -243.818 22.9135, -226.4833C27.9733, -206.239 37.8075, -187.3975 50.0119, -170.4727C53.0504, -172.9916 56.0985, -175.4995 59.1561, -177.996C47.7114, -193.7381 38.4746, -210.9467 33.7742, -229.1966C29.639, -244.9413 28.8783, -261.678 31.3979, -277.9164C33.8999, -294.3168 39.7337, -310.4172 47.3375, -325.8141C55.5483, -342.3957 65.9062, -358.1131 77.2114, -373.3174C101.356, -405.7781 129.7549, -435.4887 157.4825, -466.2103C157.4825, -466.2103 157.4825, -466.2103 157.4825, -466.2103C170.8389, -480.9941 184.1246, -496.0224 196.6228, -511.8258C198.9168, -514.7226 201.1875, -517.6505 203.424, -520.6135C203.5782, -520.5605 203.7323, -520.5075 203.8866, -520.4546C203.8866, -520.4546 203.8946, -520.467 203.8946, -520.467C209.664, -518.5441 216.6502, -518.779 224.6622, -522.2473C232.5549, -525.664 242.0024, -532.5201 251.5459, -544.1799C261.4665, -556.3973 271.5724, -574.0462 278.5891, -597.217C279.3107, -599.5999 279.9742, -602.0287 280.5787, -604.4985C285.2765, -623.8759 286.2042, -643.9346 285.065, -663.4583C283.9654, -682.7892 280.8998, -702.2386 278.4948, -717.9471C275.7994, -735.6048 274.2964, -746.0462 273.0009, -757.9281C271.8978, -768.0452 271.4777, -774.2585 271.4777, -774.2585C271.4777, -774.2585 267.5542, -769.4564 261.8599, -760.6291C255.9394, -751.4511 248.9971, -739.2122 241.8311, -723.2428C234.4987, -706.9603 228.1395, -689.8792 221.805, -672.0132C216.3773, -656.8374 209.761, -637.3931 205.8174, -625.124C205.2443, -623.325 204.6883, -621.5443 204.154, -619.785C204.154, -619.785 204.1539, -619.7855 204.1539, -619.7855z" fill="#039C23" opacity="1" fill-opacity="1" id="path11413" class="Green" stroke="none" stroke-width="3px" stroke-linecap="round" stroke-miterlimit="4" stroke-dashoffset="0px" stroke-opacity="1" />
            </g>
          </g>
        </g>
      </g>
    </g>
  </g>
  <g id="svg2" transform="translate(-0.8133, -3.653)">
    <g transform="matrix(0.0157, 0, 0, 0.0157, 0, 0)">
      <g transform="matrix(1.0667, 0, 0, 1.0667, 0, 0)">
        <g id="layer1" transform="translate(0, 719.2913)">
          <g id="g11544" transform="matrix(1.9068, 0, 0, 1.9068, 692.4246, 1397.509)">
            <g id="g11519" transform="translate(55.3556, -167.9757)">
              <path d="M-217.4453, -824.1602C-217.4453, -824.1602 -215.8755, -813.0791 -211.2109, -795.8418C-206.3439, -777.8565 -198.8435, -756.0388 -187.6113, -731.5312C-174.8634, -703.6404 -158.5539, -674.9812 -141.8984, -653.4706C-140.762, -652.0029 -139.639, -650.5652 -138.5293, -649.1581C-121.0487, -626.9274 -106.3429, -611.6405 -94.3262, -602.3222C-82.137, -592.8701 -71.8847, -588.8659 -63.0508, -589.3808C-61.7188, -589.4588 -60.4215, -589.6399 -59.1602, -589.9218C-59.3991, -590.3676 -59.6386, -590.8126 -59.879, -591.2577C-74.7113, -618.7107 -92.2677, -644.9218 -110.5528, -670.6815C-128.1649, -695.4866 -146.5138, -719.8879 -164.0587, -744.8202C-145.5846, -720.5965 -126.3509, -696.961 -107.7735, -672.8183C-88.4845, -647.7506 -69.8428, -622.1138 -53.7286, -594.8984C-37.8072, -568.0085 -24.4137, -539.4835 -15.8263, -509.4375C-9.7839, -488.2965 -6.1898, -466.496 -4.4044, -444.5801C-2.67, -423.2899 -2.5919, -401.8958 -3.0548, -380.5391C-3.0656, -380.0419 -3.0826, -379.5442 -3.0939, -379.0469C-6.8744, -390.9664 -11.6549, -402.6168 -17.5666, -413.7578C-25.958, -429.5006 -36.5328, -443.9191 -48.674, -456.7285C-60.5438, -469.2322 -73.657, -480.1666 -87.1955, -490.1172C-101.289, -500.4876 -115.808, -509.9051 -130.1818, -519.1875C-145.4705, -529.0693 -160.6606, -538.8535 -175.2912, -549.2344C-191.0739, -560.4341 -206.278, -572.3558 -220.4318, -585.3594C-228.9546, -593.186 -237.1144, -601.4147 -244.8595, -610.0196C-244.7715, -610.1533 -244.6839, -610.2864 -244.5958, -610.42L-244.6038, -610.428C-238.6766, -619.5644 -237.9774, -631.726 -243.0511, -647.8675C-246.6776, -659.3456 -253.0257, -672.4221 -262.4632, -689.4241C-266.0925, -695.9624 -270.4413, -702.7025 -275.1409, -709.5003C-283.8319, -722.5977 -301.0427, -743.2884 -308.4983, -753.8655C-317.6081, -766.5425 -323.5528, -777.8739 -327.6428, -788.5589C-331.4675, -798.5506 -332.8401, -805.5101 -332.8401, -805.5101C-332.8401, -805.5101 -337.283, -800.0819 -342.0842, -789.2425C-346.966, -778.2213 -351.7072, -762.1193 -351.8381, -742.1644C-352.0713, -720.1467 -347.9087, -697.4103 -341.5861, -677.723C-338.5882, -668.4116 -334.8751, -659.5977 -330.4572, -651.6507C-319.1273, -631.2715 -306.7466, -617.3283 -295.6994, -608.8616C-279.3567, -596.3554 -265.6498, -595.3188 -255.9221, -600.1936C-262.3032, -608.1961 -268.3457, -616.4473 -274.0198, -624.9241C-288.3737, -646.3779 -300.3517, -669.184 -310.2366, -692.7171C-315.6102, -705.5 -320.9006, -718.4345 -325.0061, -731.6526C-320.2673, -718.6654 -314.3825, -706.0732 -308.4104, -693.5901C-297.4582, -670.6967 -284.519, -648.7297 -269.4084, -628.3401C-256.4157, -610.8083 -241.8152, -594.4755 -225.9221, -579.5237C-211.6219, -566.0705 -196.2927, -553.7429 -180.4162, -542.1936C-171.51, -535.7148 -162.4245, -529.4892 -153.2834, -523.3459C-153.4359, -523.3673 -153.5878, -523.3937 -153.7404, -523.4143C-166.4601, -525.0731 -178.9404, -524.2007 -190.7384, -522.0471C-203.6266, -519.7314 -215.9552, -516.115 -227.8732, -512.1018C-240.4088, -507.8944 -252.6051, -503.2386 -264.713, -498.758C-274.4939, -495.1446 -284.2045, -491.6214 -293.9728, -488.5764C-294.0348, -488.7192 -294.0963, -488.8633 -294.1583, -489.0061L-294.1623, -489.0021C-296.8558, -495.1431 -300.4824, -500.3269 -304.9924, -504.2482C-312.785, -511.0289 -321.9988, -513.3344 -332.9709, -512.6291C-333.6963, -512.5825 -334.4189, -512.4962 -335.1428, -512.3752C-341.7516, -511.3483 -348.3441, -506.1701 -356.3987, -502.4592C-361.0425, -500.2436 -366.0977, -498.629 -371.3889, -497.6643C-382.7786, -495.5793 -392.9533, -497.0354 -392.9533, -497.0354C-392.9533, -497.0354 -394.2107, -486.9623 -388.0881, -473.1155C-385.2226, -466.6786 -380.7568, -459.7691 -374.1994, -453.5335C-362.1558, -442.3477 -346.0985, -435.0865 -331.6467, -434.9866C-330.1953, -434.9639 -328.7726, -435.006 -327.385, -435.1116C-306.8658, -436.6733 -296.2896, -445.5124 -292.0803, -454.7542C-289.3275, -460.7516 -288.8417, -467.4581 -289.885, -474.3577C-292.2109, -473.935 -294.5446, -473.5356 -296.883, -473.1624C-308.8472, -471.2392 -321.1114, -470.0456 -333.258, -470.6663C-343.4493, -471.1773 -353.5948, -473.1304 -362.7131, -477.0569C-353.296, -474.0723 -343.2716, -473.1822 -333.3928, -473.6311C-321.598, -474.167 -309.9462, -476.4828 -298.5256, -479.4651C-286.1846, -482.6876 -274.0733, -486.7223 -262.008, -490.8538C-249.741, -495.0543 -237.5183, -499.3886 -225.131, -503.2171C-213.3375, -506.862 -201.3803, -510.0833 -189.1818, -511.9691C-178.026, -513.6936 -166.6082, -514.2811 -155.4572, -512.5257C-147.7232, -511.3083 -135.4415, -508.7343 -125.799, -505.0355C-114.7572, -497.6587 -103.7962, -490.1625 -93.1974, -482.1664C-80.1004, -472.2855 -67.5588, -461.6026 -56.4122, -449.5648C-45.0229, -437.265 -35.1698, -423.52 -27.4591, -408.6351C-18.9903, -392.2869 -8.4496, -358.8445 -4.2462, -339.5706C-5.1419, -309.8934 -5.6707, -280.2209 -2.9825, -250.68C-2.2265, -242.3728 -0.04, -234.2381 2.955, -226.4534C6.1072, -218.26 10.1586, -210.4295 14.7343, -202.9378C23.5275, -188.5409 34.1863, -175.3196 45.9823, -163.2601C48.5972, -166.2183 51.2214, -169.1671 53.8553, -172.1077C42.7199, -183.3661 32.6788, -195.603 24.4217, -208.8518C20.068, -215.8481 16.2428, -223.0332 13.3201, -230.4397C10.5637, -237.4788 8.53, -244.6073 7.8455, -251.6643C3.5652, -293.6208 6.0864, -336.7221 6.6053, -380.3284C6.8807, -401.8527 6.5924, -423.5721 4.6307, -445.3147C2.6098, -467.7109 -1.2912, -490.0476 -7.6994, -511.76C-16.7007, -542.1206 -30.3467, -570.7191 -46.4553, -597.51C-46.3506, -597.6364 -46.2455, -597.7644 -46.1408, -597.8908L-46.1486, -597.9025C-45.5066, -598.6935 -44.9134, -599.5389 -44.3693, -600.4396C-39.775, -608.0379 -38.7363, -619.7617 -43.5119, -635.967C-48.3202, -652.2832 -58.8292, -672.5008 -76.9396, -696.5412C-78.0671, -698.0421 -79.2232, -699.556 -80.4064, -701.0842C-97.9672, -723.7636 -122.0522, -745.064 -144.8244, -763.9807C-292.9355, -887.3482 -53.7825, -687.1542 -195.7756, -805.6272C-209.0527, -816.705 -217.4455, -824.1604 -217.4455, -824.1604z" fill="#039C23" opacity="1" fill-opacity="1" id="path11422" class="Green" stroke="none" stroke-width="3px" stroke-linecap="round" stroke-miterlimit="4" stroke-dashoffset="0px" stroke-opacity="1" />
            </g>
          </g>
        </g>
      </g>
    </g>
  </g>
  <g id="svg2" transform="translate(-0.8133, -3.653)">
    <g transform="matrix(0.0157, 0, 0, 0.0157, 0, 0)">
      <g transform="matrix(1.0667, 0, 0, 1.0667, 0, 0)">
        <g id="layer1" transform="translate(0, 719.2913)">
          <g id="g11544" transform="matrix(1.9068, 0, 0, 1.9068, 692.4246, 1397.509)">
            <g id="g11519" transform="translate(55.3556, -167.9757)">
              <path d="M410.6074, -642.1152C410.6074, -642.1152 408.2216, -636.6057 405.4238, -626.8125C401.7364, -613.905 400.4741, -606.074 396.455, -587.8437C392.7826, -572.1495 388.5876, -555.8267 381.5194, -545.0644C373.7102, -530.4678 365.8638, -519.0066 358.3612, -507.0351C356.5336, -504.119 354.7246, -501.3382 352.9784, -498.7109C337.5762, -475.0747 327.8191, -463.6317 323.6874, -447.6503C321.8191, -440.4981 321.9094, -434.155 323.8944, -428.5214C327.1026, -430.5833 330.2742, -432.6977 333.4061, -434.871C351.0936, -447.1559 367.5382, -461.3434 381.0213, -478.1581C394.9523, -495.5017 405.5856, -515.7423 412.0213, -537.4393C413.9616, -543.9578 415.1836, -550.6755 415.8983, -557.492C415.4796, -550.6572 414.5477, -543.8764 412.8846, -537.2225C407.3749, -515.1741 397.5541, -494.219 384.1209, -475.8866C371.1193, -458.1427 354.971, -442.8583 337.4607, -429.5389C319.2149, -415.6601 299.5078, -403.8045 279.4021, -392.7869C258.6852, -381.4344 237.4956, -370.9716 216.449, -360.24C195.6536, -349.6366 174.9543, -338.7891 155.1052, -326.5037C136.1421, -314.7667 117.9144, -301.6787 101.8747, -286.1834C86.208, -271.0485 72.7653, -253.4848 63.2614, -233.8846C58.2484, -223.5461 54.3172, -212.6896 51.4704, -201.5584C48.3456, -189.3402 46.519, -176.8036 45.7712, -164.2146C49.7172, -164.2342 53.6637, -164.2398 57.6091, -164.2322C58.2196, -175.9114 59.7894, -187.4908 62.5368, -198.7263C65.085, -209.1681 68.6433, -219.361 73.2145, -229.0583C81.8229, -247.4253 94.3453, -264.1272 109.0817, -278.7204C124.2119, -293.7055 141.7456, -306.5553 160.195, -318.279C171.7784, -325.6278 183.7415, -332.4989 195.9059, -339.154C220.1833, -341.2962 255.3694, -340.8479 278.7516, -339.2751C302.0294, -337.6734 325.8026, -335.2249 349.9918, -335.3884C361.641, -335.4699 373.3856, -336.2294 385.0484, -338.0661C385.7331, -338.1741 386.4175, -338.2862 387.1011, -338.402C387.1464, -338.2526 387.1924, -338.1022 387.2378, -337.9528L387.2438, -337.9548C389.5693, -330.4279 393.8356, -323.9691 400.9235, -319.9743C407.9228, -316.0295 417.9605, -314.4389 430.5837, -317.5856C433.8324, -318.4077 437.2238, -319.5401 440.7126, -321.0192C451.3492, -325.5287 460.7811, -334.4259 467.8688, -344.9254C476.2155, -357.3558 480.5602, -370.5854 482.8122, -381.0856C485.0246, -391.401 485.2067, -398.5016 485.2067, -398.5016C485.2067, -398.5016 478.0813, -398.0214 468.1344, -397.4664C453.3892, -396.6438 450.4005, -396.6978 434.4977, -396.1207C425.1105, -395.7869 416.5179, -395.2175 410.3571, -392.6051C408.2589, -391.7151 406.3499, -390.7913 404.5934, -389.8121C397.6951, -385.9126 392.8449, -381.0021 389.5739, -374.7281C386.3403, -368.526 384.7533, -361.0908 384.9118, -353.0367C395.3844, -353.5309 405.8807, -354.9913 416.1833, -357.6051C428.0737, -360.6155 439.7359, -365.1751 450.8669, -371.0094C452.4938, -371.8621 454.1104, -372.7416 455.7145, -373.6461C454.21, -372.5985 452.6901, -371.5717 451.154, -370.5699C440.643, -363.7151 429.3786, -357.9952 417.572, -353.7437C406.7279, -349.8388 395.4475, -347.1824 384.0251, -345.6343C372.7993, -344.1129 361.4473, -343.6422 350.1189, -343.8101C326.5637, -344.1592 303.1357, -347.1341 279.6736, -349.2867C259.6272, -351.126 239.4618, -352.3327 219.3611, -351.6715C219.7445, -351.8725 220.124, -352.0761 220.5076, -352.277C241.3738, -363.1934 262.5362, -373.9219 283.3396, -385.6012C300.1293, -395.0179 316.7288, -405.0963 332.5056, -416.4977C332.6353, -416.4005 332.7644, -416.3019 332.8943, -416.2047L332.906, -416.2147C337.4931, -412.8429 343.5659, -410.9575 351.279, -411.369C365.4496, -412.1289 390.9385, -422.0843 415.3434, -453.0038C418.3978, -456.9259 421.39, -461.1765 424.2614, -465.7636C435.7306, -484.0854 442.649, -506.3108 444.3591, -529.3534C446.2406, -554.5995 440.212, -575.2535 433.5661, -591.3534C428.8564, -603.1176 419.4373, -622.239 416.9372, -627.6327C412.8224, -636.5099 410.6071, -642.1151 410.6071, -642.1151z" fill="#039C23" opacity="1" fill-opacity="1" id="path11431" class="Green" stroke="none" stroke-width="3px" stroke-linecap="round" stroke-miterlimit="4" stroke-dashoffset="0px" stroke-opacity="1" />
            </g>
          </g>
        </g>
      </g>
    </g>
  </g>
  <g id="svg2" transform="translate(-0.8133, -3.653)">
    <g transform="matrix(0.0157, 0, 0, 0.0157, 0, 0)">
      <g transform="matrix(1.0667, 0, 0, 1.0667, 0, 0)">
        <g id="layer1" transform="translate(0, 719.2913)">
          <g id="g11544" transform="matrix(1.9068, 0, 0, 1.9068, 692.4246, 1397.509)">
            <path d="M0.4722, -414.24C-5.1484, -413.9003 -13.225, -403.5127 -14.4419, -402.3924C-17.0066, -400.0311 -20.4871, -405.8896 -22.3169, -404.2049C-23.528, -403.0898 -23.6688, -385.506 -28.2251, -389.701C-29.8602, -391.2065 -41.9366, -402.4274 -45.9497, -400.5799C-46.4378, -400.3552 -50.745, -393.3279 -51.8559, -393.3279C-54.4603, -393.3279 -56.7079, -405.0449 -57.7641, -406.0174C-60.1991, -408.2593 -58.6068, -391.5154 -61.7055, -391.5154C-63.1733, -391.5154 -62.3614, -394.536 -63.6743, -395.1404C-65.4937, -395.978 -67.57, -396.0274 -69.5805, -396.9529C-78.4525, -401.0371 -74.0102, -381.5445 -75.4887, -378.822C-76.9326, -376.1633 -82.1234, -377.6941 -85.4457, -379.5134C-85.4537, -379.255 -85.4398, -379.0122 -85.3363, -378.822C-84.0221, -376.402 -71.5623, -369.7438 -77.4574, -364.3162C-82.1628, -359.9839 -100.8373, -369.7576 -101.0883, -369.7576C-102.0388, -369.7576 -100.046, -359.8364 -101.0883, -358.8767C-101.6102, -358.3962 -107.8165, -354.722 -108.9672, -355.2517C-113.085, -357.1473 -118.7922, -373.4037 -122.7524, -369.7576C-124.3935, -368.2466 -121.1113, -362.2002 -122.7524, -360.6892C-123.737, -359.7826 -127.676, -361.5958 -128.6606, -360.6892C-133.6362, -356.1081 -122.3877, -346.1833 -134.5688, -346.1833C-135.4448, -346.1833 -141.2236, -345.6207 -142.4458, -346.1833C-164.1864, -356.1916 -144.1322, -361.4653 -154.2622, -366.1286C-155.6172, -366.7524 -164.282, -373.0621 -166.0767, -369.7575C-169.4049, -363.629 -158.8606, -356.4561 -168.0474, -347.9977C-169.6885, -346.4867 -176.252, -349.5087 -177.8931, -347.9977C-180.7631, -345.3553 -169.2719, -335.3063 -179.8619, -335.3063C-186.733, -335.3063 -192.647, -343.926 -199.5553, -340.7457C-201.3061, -339.9397 -207.1586, -333.2417 -209.401, -335.3063C-211.594, -337.3254 -205.5815, -351.5705 -213.3424, -347.9977C-218.5432, -345.6035 -215.0952, -339.0308 -219.2486, -337.1188C-222.6901, -335.5345 -219.9855, -338.9313 -223.188, -338.9313C-223.7753, -338.9313 -222.3707, -325.1779 -223.188, -324.4254C-227.6301, -320.3355 -231.1156, -323.5424 -233.0337, -324.4254C-241.4212, -328.2866 -240.5478, -318.9879 -240.9126, -318.9879C-244.1642, -318.9879 -249.6982, -324.8455 -252.7271, -326.2399C-260.349, -329.7487 -264.2833, -306.369 -266.5123, -302.6676C-266.5123, -301.5825 -265.6076, -298.5921 -264.6568, -295.4176L18.1284, -295.4176L40.2807, -295.4176L43.2006, -295.4176L44.1576, -295.4176L46.1146, -295.4176L57.4544, -295.4176L57.556, -295.4176L151.3587, -295.4176L151.4603, -295.4176L162.7982, -295.4176L164.7552, -295.4176L165.7142, -295.4176L168.6341, -295.4176L190.7864, -295.4176L473.5716, -295.4176C474.5224, -298.5921 475.4271, -301.5825 475.4271, -302.6676C473.1982, -306.369 469.2619, -329.7486 461.64, -326.2399C458.6111, -324.8455 453.0772, -318.9879 449.8255, -318.9879C449.4607, -318.9879 450.3341, -328.2866 441.9466, -324.4254C440.0285, -323.5424 436.543, -320.3355 432.1009, -324.4254C431.2836, -325.1779 432.6882, -338.9313 432.1009, -338.9313C428.8983, -338.9313 431.6049, -335.5345 428.1634, -337.1188C424.01, -339.0308 427.456, -345.6035 422.2552, -347.9977C414.4943, -351.5704 420.5087, -337.3254 418.3158, -335.3063C416.0734, -333.2417 410.2209, -339.9397 408.4701, -340.7457C401.5619, -343.9259 395.6479, -335.3063 388.7767, -335.3063C378.1867, -335.3063 389.678, -345.3553 386.8079, -347.9977C385.1668, -349.5087 378.6033, -346.4867 376.9622, -347.9977C367.7754, -356.456 378.3177, -363.6289 374.9895, -369.7575C373.1949, -373.0621 364.5301, -366.7524 363.175, -366.1286C353.045, -361.4652 373.0992, -356.1916 351.3586, -346.1833C350.1365, -345.6207 344.3577, -346.1833 343.4816, -346.1833C331.3005, -346.1833 342.551, -356.1081 337.5754, -360.6892C336.5908, -361.5958 332.6499, -359.7826 331.6652, -360.6892C330.0241, -362.2002 333.3063, -368.2466 331.6652, -369.7576C327.7051, -373.4037 321.9998, -357.1474 317.882, -355.2517C316.7313, -354.722 310.525, -358.3962 310.0031, -358.8767C308.9608, -359.8363 310.9536, -369.7576 310.0031, -369.7576C309.7522, -369.7576 291.0757, -359.9839 286.3703, -364.3162C280.4752, -369.7439 292.935, -376.402 294.2492, -378.822C294.3524, -379.0122 294.3666, -379.255 294.3586, -379.5134C291.0362, -377.6941 285.8454, -376.1633 284.4016, -378.822C282.9231, -381.5445 287.3673, -401.0371 278.4954, -396.9529C276.4849, -396.0274 274.4066, -395.9779 272.5872, -395.1404C271.2743, -394.536 272.0863, -391.5154 270.6184, -391.5154C267.5197, -391.5154 269.112, -408.2592 266.677, -406.0174C265.6208, -405.045 263.3751, -393.3279 260.7708, -393.3279C259.6599, -393.3279 255.3507, -400.3552 254.8626, -400.5799C250.8495, -402.4273 238.7731, -391.2065 237.138, -389.701C232.5817, -385.506 232.4429, -403.0898 231.2318, -404.2049C229.402, -405.8896 225.9195, -400.0311 223.3548, -402.3924C222.1381, -403.5126 214.0632, -413.8982 208.4427, -414.24L208.4407, -414.24C207.4006, -414.3024 206.4449, -414.0216 205.6321, -413.2732C205.0156, -412.7056 200.4209, -407.9499 199.7219, -406.0193C199.0992, -404.2992 201.1144, -401.8619 199.7219, -400.5799C196.9654, -398.042 189.9236, -411.5008 185.9387, -407.8319C184.0244, -406.0694 185.316, -398.231 185.7531, -396.0546C184.5191, -399.944 176.7237, -408.7069 172.1515, -402.3925C171.4232, -401.3867 172.7386, -399.8487 172.1515, -398.7675C171.5852, -397.7248 165.5691, -393.8992 164.2745, -391.5155C162.4059, -388.0746 167.1151, -377.8106 164.2745, -375.1952C156.4038, -367.9486 146.8123, -384.2616 146.5518, -384.2616C145.9397, -384.2616 148.2568, -371.8109 144.5811, -375.1952C143.5207, -376.1715 141.9803, -389.1174 138.6749, -386.0741C136.3081, -383.895 140.0533, -377.0096 136.7061, -377.0096C135.1027, -377.0096 127.5, -381.2272 124.8877, -378.8221C122.0725, -376.2301 128.3147, -369.0835 130.7959, -367.9413C127.9269, -367.9413 110.5673, -360.0316 120.9502, -355.2518C122.7926, -354.4036 120.3347, -354.6343 117.54, -354.9139C117.5277, -355.0367 117.5196, -355.2346 117.5009, -355.2518C115.9387, -356.6901 113.9735, -356.3016 112.0693, -355.3651C111.004, -355.5593 109.8812, -355.8795 109.1748, -355.2772C109.2457, -358.7613 109.2273, -366.215 107.165, -364.3163C105.9562, -363.2033 105.0811, -360.4626 104.456, -357.8104C103.8309, -360.4624 102.9577, -363.2033 101.749, -364.3163C99.6867, -366.2151 99.6683, -358.7613 99.7392, -355.2772C99.0327, -355.8795 97.9081, -355.5574 96.8427, -355.3631C94.9382, -356.2999 92.9735, -356.6903 91.4111, -355.2518C91.3924, -355.2346 91.3844, -355.0368 91.372, -354.9139C88.5773, -354.6343 86.1194, -354.4036 87.9618, -355.2518C98.3447, -360.0316 80.9851, -367.9413 78.1161, -367.9413C80.5973, -369.0835 86.8395, -376.2302 84.0243, -378.8221C81.412, -381.2272 73.8113, -377.0096 72.2079, -377.0096C68.8607, -377.0096 72.606, -383.8949 70.2391, -386.0741C66.9337, -389.1174 65.3913, -376.1715 64.3309, -375.1952C60.6552, -371.811 62.9743, -384.2616 62.3621, -384.2616C62.1017, -384.2616 52.5082, -367.9486 44.6375, -375.1952C41.7969, -377.8106 46.5061, -388.0746 44.6375, -391.5155C43.343, -393.8992 37.3268, -397.7247 36.7605, -398.7675C36.1734, -399.8487 37.4888, -401.3867 36.7605, -402.3925C32.1883, -408.7069 24.393, -399.944 23.1589, -396.0546C23.5961, -398.231 24.8896, -406.0694 22.9753, -407.8319C18.9904, -411.5008 11.9486, -398.042 9.1921, -400.5799C7.7996, -401.862 9.8148, -404.2992 9.1921, -406.0193C8.4931, -407.9499 3.8985, -412.7056 3.2819, -413.2732C2.4686, -414.022 1.5122, -414.3029 0.4714, -414.24zM294.359, -379.5134C296.8863, -380.8973 298.335, -382.447 296.2184, -382.447C293.5259, -382.447 294.322, -380.7275 294.359, -379.5134zM-85.4457, -379.5134C-85.4087, -380.7275 -84.6125, -382.447 -87.3051, -382.447C-89.4217, -382.447 -87.973, -380.8973 -85.4457, -379.5134z" fill="#039C23" opacity="1" fill-opacity="1" id="path11527" class="Green" stroke="none" stroke-width="3px" stroke-linecap="round" stroke-miterlimit="4" stroke-dashoffset="0px" stroke-opacity="1" />
          </g>
        </g>
      </g>
    </g>
  </g>
</svg>