<?xml version='1.0' encoding='UTF-8'?>
<svg viewBox="-8.8153 -2 32 32" xmlns="http://www.w3.org/2000/svg" xmlns:xlink="http://www.w3.org/1999/xlink">
  <g transform="translate(0, 0.0008)">
    <g transform="matrix(0.026, 0, 0, 0.026, 0, 0)">
      <g transform="matrix(1.0667, 0, 0, 1.0667, 0, 0.004)">
        <g transform="translate(305.6, 196.31)">
          <g fill="#ccc" stroke="#000" stroke-width="11.2px" fill-rule="evenodd">
            <path d="M-300, -170.74L-300, 111.74C-300, 135.545 -268.062, 151.811 -268.062, 175.616L-268.062, 783.406C-268.062, 815.344 -172.248, 815.344 -172.248, 783.406L-172.248, 175.616C-172.248, 151.811 -140.31, 135.545 -140.31, 111.74L-140.31, -170.74C-140.31, -178.2679 -152.743, -190.701 -160.271, -190.701C-167.7988, -190.701 -180.232, -178.268 -180.232, -170.74L-180.232, 32.86C-180.232, 43.506 -200.193, 43.506 -200.193, 32.86L-200.193, -170.74C-200.193, -178.2679 -212.626, -190.701 -220.154, -190.701C-227.6818, -190.701 -240.115, -178.268 -240.115, -170.74L-240.115, 32.86C-240.115, 43.506 -260.076, 43.506 -260.076, 32.86L-260.076, -170.74C-260.076, -178.2679 -272.509, -190.701 -280.037, -190.701C-287.5648, -190.701 -299.998, -178.268 -299.998, -170.74z" fill="#039C23" class="Green" stroke="#000000" stroke-width="11.2px" fill-rule="evenodd" />
          </g>
        </g>
      </g>
    </g>
  </g>
  <g transform="translate(0, 0.0008)">
    <g transform="matrix(0.026, 0, 0, 0.026, 0, 0)">
      <g transform="matrix(1.0667, 0, 0, 1.0667, 0, 0.004)">
        <g transform="translate(305.6, 196.31)">
          <g fill="#ccc" stroke="#000" stroke-width="11.2px" fill-rule="evenodd">
            <path d="M78.973, -78.917C78.973, -124.707 129.003, -189.957 174.787, -190.697C193.977, -191.0064 206.725, -177.951 206.725, -158.759L206.725, 783.411C206.725, 815.349 110.911, 815.349 110.911, 783.411L110.911, 240.461C110.911, 223.628 78.973, 241.3248 78.973, 224.492z" fill="#039C23" class="Green" stroke="#000000" stroke-width="11.2px" fill-rule="evenodd" />
          </g>
        </g>
      </g>
    </g>
  </g>
</svg>