<?xml version='1.0' encoding='UTF-8'?>
<svg viewBox="-8.3725 -2 32 32" xmlns="http://www.w3.org/2000/svg" xmlns:xlink="http://www.w3.org/1999/xlink">
  <g id="svg2" transform="translate(-0.0742, -0.1343)">
    <g transform="matrix(0.0079, 0, 0, 0.0079, 0, 0)">
      <g transform="matrix(1.3333, 0, 0, 1.3333, -0.0001, 0)">
        <path d="M786.11, 15.936C785.23, 15.943 784.29, 16.154 783.29, 16.625C755.8, 59.162 720.41, 98.274 696.2, 143.705C672.84, 184.325 649.64, 232.985 668.57, 280.155C702.95, 357.905 732.91, 442.625 718.69, 528.825C716.98, 533.715 716.64, 550.905 726.16, 542.505C748.95, 515.905 769.86, 487.045 797.56, 465.065C855.05, 413.565 909.94, 350.885 925.54, 273.065C935.02, 227.065 926.44, 175.945 895.4, 139.605C860.94, 101.475 825.56, 63.942 795.05, 22.485C792.74, 19.676 789.94, 15.908 786.11, 15.941zM581.78, 305.136C578.52, 305.116 575.24, 305.266 571.96, 305.586C541.98, 306.376 512.28, 311.106 482.25, 310.396C472.21, 312.236 478.25, 326.036 478.3, 332.816C487.8, 375.306 485.21, 425.046 515.3, 459.686C536.86, 478.476 566.51, 480.206 592.15, 490.356C624.75, 501.656 656.91, 518.926 677.34, 547.646C679.89, 554.026 689.01, 553.356 688.45, 546.086C679.16, 495.286 694.66, 443.036 684.05, 392.186C676.76, 343.116 630.72, 305.456 581.78, 305.136zM1050.7, 418.196C1041.1, 418.166 1031.5, 418.536 1021.9, 419.306C920.84, 425.656 829.76, 483.286 764.81, 558.556C754.62, 568.256 747.3, 587.356 729.89, 580.456C675.4, 568.796 620.17, 592.846 580.26, 629.026C577.86, 631.506 572.35, 636.486 569.7, 631.536C560.34, 596.806 543.22, 563.976 519.07, 537.186C465.6, 479.316 364.59, 479.106 309.65, 534.646C266.39, 582.176 270.09, 665.396 322.51, 704.986C357.72, 734.596 411.29, 723.206 443.5, 694.756C473.19, 665.806 463.81, 614.476 435.57, 588.176C410.66, 565.606 372.44, 577.906 351.21, 598.716C347.4, 603.966 339.86, 618.116 349.8, 621.136C362.74, 611.306 365.1, 588.506 384.39, 586.876C397.55, 587.376 412.01, 585.506 423.9, 592.386C468.84, 619.386 449.9, 698.906 400.7, 708.356C382.02, 708.976 362.48, 710.706 344.55, 704.196C312.93, 690.636 298.85, 655.106 292.79, 623.566C297.85, 576.016 326.95, 524.166 376.94, 513.156C421.26, 506.266 469.36, 519.246 502.79, 549.706C534.14, 581.826 547.06, 629.586 542.43, 673.496C527.98, 708.816 514.28, 746.546 520.84, 785.376C525.19, 846.646 566.1, 900.776 619.78, 928.686C630.65, 932.236 627.99, 945.836 628.96, 954.846C631.23, 1031.796 652.46, 1106.396 677.44, 1178.496C653.78, 1162.896 635.21, 1137.696 613.5, 1118.496C613.14, 1085.496 615.76, 1050.996 604.76, 1018.996C587.91, 980.306 562.15, 944.386 526.7, 920.806C466.77, 881.016 382.75, 883.536 324.91, 926.156C311.77, 933.366 302.05, 952.956 284.5, 944.526C203.9, 924.406 112.35, 946.766 57.51, 1011.296C-12.263, 1089.296 -7.388, 1222.596 69.949, 1293.796C113.07, 1333.596 182.399, 1337.596 232.249, 1308.496C260.889, 1290.996 272.469, 1254.096 265.159, 1222.296C263.359, 1149.596 156.209, 1112.496 110.049, 1168.796C89.875, 1192.096 100.629, 1230.996 125.549, 1245.796C147.539, 1255.596 186.609, 1237.996 173.879, 1210.096C168.059, 1196.296 156.839, 1207.896 160.379, 1218.696C152.239, 1236.796 120.839, 1222.596 126.099, 1203.896C122.249, 1178.796 149.899, 1161.996 171.889, 1163.096C189.849, 1165.896 208.759, 1171.196 222.429, 1183.796C257.729, 1215.496 247.409, 1284.296 201.859, 1300.596C146.989, 1315.496 85.729, 1289.296 55.739, 1241.796C-1.175, 1148.096 48.187, 1008.196 151.989, 971.986C187.129, 959.686 225.049, 963.796 261.499, 964.746C266.799, 964.386 280.219, 966.416 274.599, 974.636C240.369, 1024.096 231.939, 1090.096 253.789, 1146.196C273.419, 1187.996 302.809, 1227.796 344.939, 1248.796C388.159, 1272.496 440.919, 1271.896 487.319, 1258.596C536.719, 1242.296 574.559, 1201.996 597.709, 1156.496C600.139, 1151.696 603.989, 1142.296 610.149, 1148.496C652.249, 1190.096 701.119, 1229.296 725.159, 1284.796C766.059, 1358.996 811.309, 1430.696 859.949, 1500.096C861.069, 1501.296 866.309, 1510.496 860.469, 1508.096C840.619, 1499.596 820.869, 1489.896 802.199, 1479.096C771.539, 1435.796 739.239, 1391.396 693.799, 1362.496C665.139, 1343.896 627.959, 1332.396 594.879, 1346.196C558.519, 1361.996 529.309, 1390.296 493.589, 1407.296C484.929, 1408.696 481.839, 1418.396 488.299, 1423.996C525.889, 1459.796 563.909, 1501.896 615.619, 1515.896C669.199, 1516.596 720.679, 1490.496 774.779, 1496.396C843.489, 1501.796 906.799, 1545.296 936.249, 1607.196C927.179, 1605.296 920.419, 1598.096 912.449, 1593.796C844.939, 1550.796 764.179, 1522.596 683.309, 1533.296C642.319, 1540.696 600.109, 1552.696 567.809, 1580.296C539.209, 1605.096 531.689, 1647.496 543.899, 1682.396C553.449, 1707.896 582.059, 1725.196 609.109, 1720.496C655.579, 1718.996 682.719, 1650.196 647.119, 1619.096C625.139, 1604.196 580.489, 1624.196 593.059, 1654.196C592.489, 1663.296 608.399, 1666.196 604.049, 1654.396C594.959, 1630.596 644.709, 1617.396 646.799, 1644.496C669.189, 1692.496 589.439, 1728.196 561.929, 1688.096C541.879, 1659.196 554.499, 1616.696 581.959, 1596.896C622.939, 1566.796 674.999, 1559.096 724.199, 1552.796C814.019, 1550.896 900.299, 1591.396 967.559, 1648.696C1082.699, 1793.896 1189.499, 1955.496 1224.499, 2140.496C1245.899, 2253.696 1223.099, 2369.996 1180.399, 2475.396C1151.299, 2552.496 1103.699, 2621.396 1048.499, 2682.096C1040.999, 2689.096 1044.199, 2677.896 1045.699, 2673.396C1084.999, 2574.296 1112.699, 2469.296 1114.699, 2362.196C1114.999, 2355.796 1114.099, 2347.896 1120.299, 2343.896C1169.699, 2302.396 1205.399, 2238.396 1195.199, 2172.296C1190.299, 2102.196 1137.099, 2044.196 1074.099, 2018.196C1057.999, 2015.996 1042.399, 2007.796 1033.899, 1993.596C1009.099, 1947.296 968.439, 1912.396 931.969, 1875.496C879.939, 1828.196 819.839, 1785.396 750.059, 1769.996C702.619, 1759.096 652.049, 1763.996 606.949, 1781.996C519.459, 1817.196 483.149, 1943.396 546.599, 2015.896C586.889, 2065.696 674.749, 2063.496 710.069, 2008.896C712.489, 2005.596 723.179, 1991.696 712.879, 1991.396C686.609, 2006.996 658.669, 2029.296 626.039, 2025.496C590.689, 2017.696 549.119, 1997.396 543.699, 1957.396C539.789, 1907.996 556.759, 1856.296 592.969, 1821.696C617.289, 1799.796 650.739, 1789.596 683.179, 1791.796C761.099, 1795.196 832.639, 1833.896 893.239, 1880.496C932.209, 1917.796 973.689, 1954.296 1002.099, 2000.696C1003.999, 2011.996 985.739, 2004.096 986.199, 1996.196C959.859, 1950.196 920.909, 1911.096 874.509, 1885.496C825.239, 1860.396 763.109, 1851.396 712.539, 1877.496C668.819, 1901.596 699.149, 1981.796 746.759, 1973.096C774.069, 1968.596 787.229, 1934.696 771.029, 1912.696C761.439, 1900.096 746.649, 1905.696 735.949, 1912.096C740.159, 1889.096 768.389, 1888.696 787.189, 1888.996C868.749, 1888.096 939.859, 1942.196 985.069, 2006.096C934.539, 2018.596 884.149, 2045.796 853.559, 2089.796C818.919, 2139.596 815.799, 2206.296 836.339, 2262.296C864.279, 2322.196 919.849, 2373.696 987.849, 2379.796C1018.199, 2382.996 1048.699, 2375.396 1077.399, 2366.196C1083.299, 2365.396 1083.299, 2373.996 1082.699, 2377.596C1081.299, 2446.996 1067.699, 2515.696 1048.499, 2582.296C1041.799, 2635.996 1012.699, 2683.096 987.379, 2729.896C979.889, 2741.796 974.319, 2755.396 963.379, 2764.696C913.509, 2807.496 862.999, 2849.996 807.219, 2884.996C804.769, 2887.296 796.719, 2886.196 803.659, 2881.396C860.239, 2811.496 914.749, 2736.996 943.389, 2650.696C944.749, 2646.996 941.659, 2640.396 937.139, 2643.196C912.749, 2663.296 889.029, 2688.596 859.339, 2699.696C868.649, 2664.796 881.099, 2629.496 878.709, 2592.796C875.209, 2538.496 871.159, 2484.096 870.929, 2429.696C870.609, 2422.796 861.509, 2425.096 860.069, 2430.196C832.769, 2474.896 791.009, 2507.996 748.249, 2536.996C701.539, 2579.596 672.799, 2637.796 653.449, 2697.196C653.249, 2701.196 648.249, 2700.196 648.239, 2696.596C642.299, 2668.596 629.859, 2641.096 609.149, 2620.896C606.389, 2617.896 602.339, 2614.896 598.159, 2616.896C596.539, 2671.196 561.479, 2718.896 562.929, 2774.096C566.679, 2780.096 558.699, 2781.796 557.179, 2777.796C546.189, 2759.496 530.079, 2744.296 510.779, 2735.196C500.749, 2732.196 496.789, 2744.196 496.529, 2751.796C496.529, 2770.096 498.799, 2788.496 502.189, 2806.496C521.679, 2865.296 545.289, 2923.496 553.549, 2985.196C551.759, 3008.296 550.589, 3032.896 539.839, 3053.896C539.999, 3058.996 529.809, 3055.496 535.779, 3050.796C541.009, 3009.296 546.219, 2951.996 503.559, 2927.696C467.809, 2907.796 401.719, 2926.196 408.749, 2975.596C406.709, 2996.396 438.059, 3008.196 450.679, 2992.796C456.159, 2976.396 428.229, 2990.196 429.929, 2974.696C428.649, 2952.196 458.739, 2944.596 473.709, 2957.596C518.679, 2984.096 515.519, 3046.696 496.139, 3088.596C464.169, 3126.396 425.049, 3163.396 415.459, 3214.196C411.379, 3239.296 415.739, 3266.296 428.429, 3288.296C440.129, 3292.696 436.609, 3276.896 439.689, 3270.896C445.379, 3238.096 470.199, 3214.196 486.859, 3186.896C512.179, 3148.496 564.539, 3144.596 605.469, 3153.296C636.909, 3158.096 671.039, 3182.596 665.709, 3217.996C664.739, 3226.096 658.249, 3215.596 657.159, 3212.796C647.719, 3195.096 623.769, 3197.296 607.349, 3200.996C584.339, 3209.896 571.469, 3241.196 588.449, 3261.596C603.959, 3298.296 657.819, 3306.796 684.659, 3278.396C708.669, 3249.796 718.549, 3204.796 696.209, 3172.496C673.459, 3135.296 627.849, 3120.396 586.259, 3120.096C583.039, 3118.996 567.539, 3121.996 574.559, 3115.696C646.549, 3078.496 730.899, 3086.296 807.959, 3100.796C838.029, 3104.596 866.249, 3116.596 892.499, 3131.196C922.579, 3147.696 956.989, 3170.696 961.199, 3207.696C960.049, 3229.496 950.119, 3256.296 927.759, 3264.396C912.409, 3265.096 894.139, 3268.596 881.659, 3257.096C866.019, 3245.596 872.089, 3211.096 894.719, 3214.896C906.589, 3209.696 907.219, 3237.396 915.569, 3226.496C917.659, 3212.196 899.859, 3202.996 887.639, 3202.596C857.799, 3203.296 852.109, 3244.196 867.699, 3263.696C893.439, 3287.796 945.989, 3292.796 963.899, 3256.396C986.249, 3219.396 970.949, 3170.696 941.599, 3142.096C892.269, 3087.696 816.919, 3068.796 746.309, 3063.696C741.999, 3064.796 727.199, 3060.596 738.449, 3058.396C806.059, 3047.696 878.449, 3042.096 943.849, 3066.196C994.869, 3088.796 1046.199, 3116.496 1082.099, 3160.396C1107.299, 3190.896 1116.799, 3233.496 1106.699, 3271.796C1095.599, 3297.796 1057.799, 3321.496 1032.399, 3300.096C1023.999, 3296.296 1019.099, 3275.496 1008.699, 3284.896C1003.999, 3307.796 1022.099, 3332.296 1045.099, 3336.196C1078.199, 3344.396 1120.099, 3335.396 1136.199, 3302.396C1159.199, 3258.896 1152.999, 3206.296 1137.499, 3161.296C1106.999, 3100.796 1054.999, 3050.196 990.929, 3026.596C899.939, 2992.696 799.469, 3008.596 709.289, 3036.896C698.849, 3040.596 706.679, 3032.196 710.179, 3031.296C774.279, 2995.196 836.699, 2955.896 895.759, 2911.996C949.389, 2874.996 1019.999, 2878.496 1078.999, 2899.796C1117.299, 2917.396 1155.199, 2937.696 1196.899, 2945.896C1205.399, 2945.596 1228.799, 2951.496 1224.199, 2935.996C1194.799, 2919.596 1172.899, 2893.096 1149.799, 2869.096C1147.099, 2865.796 1141.799, 2861.696 1144.599, 2856.796C1173.699, 2852.296 1193.099, 2878.896 1216.299, 2891.196C1260.699, 2918.696 1310.299, 2951.496 1365.199, 2940.496C1371.899, 2939.496 1370.899, 2930.296 1365.499, 2928.196C1339.199, 2914.596 1315.399, 2890.196 1314.199, 2859.096C1315.399, 2849.796 1325.999, 2859.596 1329.399, 2861.896C1386.799, 2903.796 1463.399, 2904.396 1529.099, 2884.196C1532.999, 2881.896 1533.199, 2876.496 1530.899, 2872.996C1497.699, 2843.696 1472.099, 2806.896 1449.899, 2768.796C1435.399, 2743.796 1409.599, 2727.296 1381.499, 2722.096C1381.299, 2709.896 1396.599, 2705.396 1401.699, 2695.396C1415.599, 2671.696 1430.899, 2648.996 1446.399, 2626.396C1449.899, 2616.896 1434.199, 2622.796 1429.899, 2624.796C1384.099, 2643.296 1336.299, 2659.396 1286.499, 2661.396C1233.799, 2666.396 1181.299, 2675.396 1130.699, 2690.696C1123.799, 2695.096 1124.699, 2688.096 1126.699, 2685.496C1166.599, 2629.096 1203.699, 2569.896 1229.199, 2505.396C1252.999, 2433.096 1278.499, 2360.096 1286.399, 2283.896C1291.899, 2283.796 1292.099, 2291.596 1295.099, 2294.996C1330.999, 2365.696 1414.799, 2407.496 1492.899, 2392.896C1586.999, 2379.296 1660.099, 2284.496 1647.699, 2189.796C1641.499, 2094.796 1551.199, 2015.396 1456.199, 2021.196C1450.699, 2019.896 1432.699, 2025.596 1438.599, 2014.996C1467.599, 1983.096 1510.499, 1956.996 1555.099, 1963.596C1551.799, 1970.296 1539.999, 1971.696 1539.199, 1980.996C1531.699, 2003.896 1555.899, 2027.196 1578.299, 2018.696C1607.699, 2006.996 1611.999, 1962.596 1587.599, 1943.696C1569.799, 1930.896 1546.299, 1934.596 1525.899, 1937.096C1478.999, 1946.096 1444.599, 1982.996 1415.799, 2018.396C1413.399, 2021.396 1411.499, 2018.396 1412.999, 2015.696C1458.799, 1933.896 1546.499, 1872.096 1642.599, 1873.796C1689.799, 1872.396 1740.699, 1888.796 1769.299, 1928.196C1793.699, 1961.596 1813.199, 2006.096 1794.099, 2046.596C1774.099, 2084.496 1742.999, 2129.596 1694.899, 2127.696C1639.999, 2135.996 1608.599, 2061.696 1634.999, 2019.996C1654.099, 1979.796 1737.599, 1990.996 1727.499, 2041.996C1728.199, 2064.996 1693.399, 2084.296 1676.799, 2065.096C1672.099, 2053.596 1689.399, 2044.196 1684.699, 2033.896C1665.799, 2028.696 1657.199, 2055.396 1660.699, 2070.096C1669.199, 2098.896 1715.799, 2102.196 1729.999, 2076.196C1742.899, 2056.996 1751.099, 2030.096 1738.499, 2008.896C1714.399, 1972.696 1651.599, 1967.396 1625.299, 2004.096C1615.499, 2018.496 1609.699, 2035.396 1607.999, 2052.696C1608.399, 2079.896 1623.599, 2102.796 1637.299, 2125.196C1658.599, 2148.796 1694.099, 2148.796 1722.399, 2139.896C1780.999, 2113.896 1834.399, 2050.196 1816.099, 1982.696C1797.699, 1927.296 1755.299, 1876.296 1696.199, 1863.796C1620.499, 1845.596 1540.799, 1870.196 1477.499, 1912.496C1445.899, 1940.896 1417.199, 1972.896 1396.199, 2009.996C1390.199, 2018.996 1392.299, 2033.696 1381.199, 2038.796C1337.399, 2059.096 1303.399, 2097.296 1285.799, 2141.996C1283.199, 2145.596 1282.999, 2154.596 1276.899, 2151.996C1267.399, 2120.496 1259.099, 2083.496 1279.499, 2054.496C1337.599, 1964.496 1458.299, 1939.996 1512.399, 1845.996C1515.999, 1840.196 1510.299, 1833.596 1504.399, 1832.896C1478.299, 1826.596 1452.699, 1836.996 1427.799, 1842.196C1436.399, 1818.696 1456.299, 1798.696 1461.999, 1773.196C1469.899, 1735.696 1479.999, 1697.196 1504.199, 1666.496C1507.599, 1659.496 1496.399, 1660.796 1492.799, 1662.496C1478.599, 1668.396 1464.199, 1673.796 1448.999, 1676.396C1428.299, 1681.496 1414.699, 1700.896 1397.699, 1710.596C1415.499, 1647.596 1435.299, 1581.396 1422.299, 1515.196C1405.699, 1447.196 1379.199, 1379.396 1386.999, 1308.196C1372.599, 1304.796 1373.499, 1326.696 1365.499, 1334.196C1318.799, 1390.396 1269.199, 1444.896 1231.699, 1507.896C1220.499, 1525.796 1217.899, 1546.796 1211.799, 1566.596C1211.199, 1569.696 1206.099, 1573.796 1204.499, 1569.296C1192.399, 1535.896 1183.899, 1501.296 1175.799, 1466.896C1173.799, 1460.296 1165.399, 1462.196 1164.499, 1468.396C1132.499, 1579.396 1128.599, 1696.996 1142.299, 1811.296C1142.799, 1815.296 1139.799, 1817.896 1136.799, 1814.396C1094.399, 1754.096 1054.599, 1691.796 1007.699, 1634.796C977.649, 1593.096 964.199, 1539.696 968.709, 1488.796C982.329, 1439.696 1011.799, 1396.496 1043.499, 1357.196C1074.899, 1328.296 1104.699, 1289.196 1098.799, 1243.796C1101.299, 1222.496 1091.299, 1201.196 1093.799, 1180.396C1131.499, 1149.496 1184.999, 1129.296 1233.299, 1145.496C1266.299, 1157.696 1276.599, 1198.296 1271.299, 1229.896C1261.899, 1257.796 1223.599, 1266.496 1200.099, 1251.096C1195.499, 1245.096 1177.399, 1239.196 1182.199, 1252.596C1205.199, 1292.796 1270.599, 1280.596 1286.099, 1239.896C1303.999, 1188.396 1265.299, 1129.096 1211.799, 1121.896C1165.399, 1111.896 1124.599, 1139.896 1085.499, 1158.896C1073.299, 1134.596 1068.899, 1106.996 1057.599, 1082.296C1055.499, 1078.396 1050.099, 1079.896 1046.899, 1081.696C1028.699, 1092.996 1012.999, 1108.996 992.319, 1116.096C948.409, 1132.796 907.859, 1164.196 890.339, 1209.096C875.139, 1248.396 875.549, 1292.596 885.409, 1333.296C900.909, 1375.296 919.759, 1416.096 935.679, 1458.096C947.529, 1483.796 945.399, 1516.596 942.789, 1541.196C901.419, 1493.896 864.439, 1440.096 828.929, 1387.296C790.379, 1345.396 775.089, 1287.796 771.469, 1232.296C766.799, 1155.096 776.629, 1074.296 814.529, 1005.796C827.539, 977.216 853.219, 957.596 876.439, 937.686C914.189, 905.946 962.419, 882.516 1013.099, 889.286C1058.199, 890.486 1077.599, 946.586 1066.199, 983.746C1054.599, 1017.196 1009.399, 1013.396 987.249, 992.816C979.149, 987.936 980.599, 1001.496 984.929, 1004.996C1009.399, 1038.396 1063.599, 1026.996 1083.399, 994.676C1098.799, 963.496 1091.899, 921.296 1066.299, 897.436C1027.199, 865.446 970.039, 864.936 925.569, 885.586C825.069, 928.446 752.509, 1026.796 740.249, 1135.196C735.579, 1165.396 739.459, 1196.096 736.109, 1226.196C731.979, 1227.396 730.339, 1222.696 728.699, 1219.796C690.069, 1137.296 657.879, 1048.896 657.339, 956.716C655.389, 952.466 658.959, 945.976 663.859, 947.426C750.179, 965.726 846.689, 914.406 880.929, 833.446C900.689, 782.796 893.749, 724.856 871.089, 676.426C846.939, 643.326 818.989, 609.506 780.059, 593.706C777.479, 592.686 775.049, 589.886 777.029, 587.136C845.039, 498.536 956.379, 435.756 1070.399, 449.596C1140.999, 455.296 1213.699, 476.846 1266.499, 525.956C1340.899, 600.596 1340.999, 728.256 1282.099, 812.106C1248.099, 858.606 1181.099, 863.256 1130.499, 845.756C1090.599, 829.196 1071.099, 785.956 1063.899, 745.876C1064.699, 714.636 1078.899, 678.386 1110.199, 666.396C1132.499, 659.536 1158.099, 666.706 1174.999, 682.406C1193.199, 703.196 1185.399, 734.606 1172.099, 756.036C1168.499, 763.256 1178.599, 761.496 1180.999, 757.376C1207.199, 733.206 1195.599, 692.596 1178.399, 666.656C1151.099, 633.386 1090.599, 639.706 1068.899, 676.446C1045.799, 715.106 1034.799, 767.186 1059.999, 807.496C1082.899, 856.356 1134.399, 890.436 1188.799, 888.816C1225.599, 891.666 1264.899, 884.356 1293.399, 859.606C1346.899, 817.696 1372.799, 747.126 1365.899, 680.336C1362.799, 621.876 1338.299, 565.816 1302.199, 520.286C1235.499, 455.806 1143.399, 418.486 1050.699, 418.196z" fill="#039C23" id="path4" class="Green" transform="scale(0.8)" />
      </g>
    </g>
  </g>
</svg>