<svg xmlns="http://www.w3.org/2000/svg" data-name="Layer 1" viewBox="0 0 100 125" x="0px" y="0px"><title>picto_vecto</title><path d="M54.13,43.79a1,1,0,0,0,0,2h3.5a1,1,0,0,0,1-1v-3.5a1,1,0,0,0-2,0v0.94a10.7,10.7,0,0,0-13.94,1,1,1,0,0,0,1.41,1.41,8.71,8.71,0,0,1,11.27-.9H54.13Z"/><path d="M48,59.25a8.74,8.74,0,0,1-6.42-9.31L42.24,51A1,1,0,1,0,44,50l-1.75-3a1,1,0,0,0-1.37-.37l-3,1.75a1,1,0,1,0,1,1.73l0.82-.47a10.74,10.74,0,0,0,7.87,11.55A1,1,0,0,0,48,59.25Z"/><path d="M59.43,47.34a1,1,0,0,0-.71,1.22,8.71,8.71,0,0,1-4.85,10.21l0.62-1.08a1,1,0,0,0-1.73-1l-1.75,3a1,1,0,0,0,.37,1.37l3,1.75a1,1,0,0,0,1-1.73l-0.81-.47A10.7,10.7,0,0,0,60.65,48,1,1,0,0,0,59.43,47.34Z"/><path d="M78,68.76s0,0,0,0V45A27.56,27.56,0,0,0,59.67,19a3.28,3.28,0,0,0-3.24-2.84h-12A3.28,3.28,0,0,0,41.15,19,27.56,27.56,0,0,0,22.82,45V68.72s0,0,0,0a3,3,0,0,0,.34,6.08H77.64A3,3,0,0,0,78,68.76ZM24.82,45a25.58,25.58,0,0,1,17.59-24.3,1,1,0,0,0,.66-1.08,0.94,0.94,0,0,0,0-.14,1.29,1.29,0,0,1,1.29-1.29h12a1.29,1.29,0,0,1,1.29,1.29,0.94,0.94,0,0,0,0,.15,1,1,0,0,0,.66,1.06A25.58,25.58,0,0,1,76,45V68.72H24.82V45ZM77.64,72.83H23.17a1.06,1.06,0,1,1,0-2.11H77.64A1.06,1.06,0,0,1,77.64,72.83Z"/><path d="M41.77,35.11a3.72,3.72,0,1,0-3.72-3.72A3.72,3.72,0,0,0,41.77,35.11Zm0-5.43a1.72,1.72,0,1,1-1.72,1.72A1.72,1.72,0,0,1,41.77,29.68Z"/><path d="M59,27.68a3.72,3.72,0,1,0,3.72,3.72A3.72,3.72,0,0,0,59,27.68Zm0,5.43a1.72,1.72,0,1,1,1.72-1.72A1.72,1.72,0,0,1,59,33.11Z"/></svg>